<svg xmlns="http://www.w3.org/2000/svg" viewBox="0 0 119 119"><g id="Layer_2" data-name="Layer 2"><g id="Layer_1-2" data-name="Layer 1"><path d="M83.37,101.9H76.49c0-6.29.05-12.36,0-18.42-.1-9.75-7.35-16.9-16.93-16.79-8.95.11-15.83,7.21-16,16.68-.11,6.07,0,12.14,0,18.49H36.2c.49-8.53-.09-17.38,1.75-25.69C40.41,65,52,58.59,63.62,60.32A22.9,22.9,0,0,1,83.35,82.79C83.45,89,83.37,95.27,83.37,101.9Z"/><path d="M60.07,54.81A17,17,0,0,1,42.55,37.33a17.45,17.45,0,0,1,34.9-.14C77.51,47.26,70.09,54.78,60.07,54.81Zm0-29.17A11.94,11.94,0,0,0,48,37.48c.07,6.36,5.9,12.08,12.17,11.93A12.49,12.49,0,0,0,72,37.58,11.93,11.93,0,0,0,60,25.64Z"/><path d="M26.93,36.45a13.46,13.46,0,0,1,13.88,14,13.94,13.94,0,0,1-14.12,14A14.17,14.17,0,0,1,12.91,50.52,13.9,13.9,0,0,1,26.93,36.45ZM18.81,50.13c-.09,5,3.24,8.45,8.18,8.44a8.37,8.37,0,0,0,8.36-8,8.72,8.72,0,0,0-8.41-8.64A8.28,8.28,0,0,0,18.81,50.13Z"/><path d="M107.2,54.86A13.94,13.94,0,1,1,92.93,41,14,14,0,0,1,107.2,54.86Zm-5.58.45a8.56,8.56,0,0,0-7.87-8.63,8.4,8.4,0,0,0-1,16.78A8.5,8.5,0,0,0,101.62,55.31Z"/><path d="M9.64,101.94H4.05C.5,80.1,15.79,64.35,34.28,70.83l-1.94,5.35C13.91,77.29,13.06,78.25,9.64,101.94Z"/><path d="M88.48,80.57q-.57-2.88-1.15-5.76c15.79-2.83,27.91,9.46,26.47,27h-4.91c-2-5.39-2.82-11.23-6-15-3.09-3.56-8.71-4.93-13.21-7.26Z"/></g></g></svg>