<svg xmlns="http://www.w3.org/2000/svg" viewBox="0 0 246.24 134.88"><defs><style>.cls-1{fill:#c7dbf0;}.cls-2{fill:#42465b;}.cls-3{fill:#4f5b90;}.cls-4{fill:#7288b0;}.cls-5{fill:#4e5a98;}.cls-6{fill:#1d1d3b;}.cls-7{fill:#6370a5;}.cls-8{fill:#47568a;}.cls-9{fill:#3d4e8e;}.cls-10{fill:#222245;}.cls-11{fill:#293261;}.cls-12{fill:#272c5a;}.cls-13{fill:#38478f;}.cls-14{fill:#324484;}.cls-15{fill:#283c6f;}.cls-16{fill:#2c457e;}.cls-17{fill:#52638c;}.cls-18{fill:#ddeaf5;}.cls-19{fill:#e3e6ed;}.cls-20{fill:#b7c9e2;}.cls-21{fill:#96b6dc;}.cls-22{fill:#40537f;}.cls-23{fill:#c2d5ea;}.cls-24{fill:#2e4475;}.cls-25{fill:#9598ac;}.cls-26{fill:#293063;}</style></defs><g id="Layer_2" data-name="Layer 2"><g id="Layer_1-2" data-name="Layer 1"><path class="cls-1" d="M81.89,10.62l1.8-.8c1.78-.77,3.55-1.58,5.35-2.3,2.55-1,5.08-2,7.68-2.86s5.35-1.36,8-2c.23-.06.48-.05.71-.11A49,49,0,0,1,115.88.94c1.86-.07,3.71-.39,5.57-.44,1.66,0,3.34.27,5,.19,4.31-.21,8.5.61,12.69,1.38,2.37.44,4.74.87,7.08,1.41A32.71,32.71,0,0,1,153.49,6c1.39.68,3,1,4.4,1.55,2,.86,4,1.83,6,2.79,1.11.53,2.21,1.08,3.27,1.71,1.65,1,3.26,2.05,4.9,3.08,1.46.92,3,1.79,4.38,2.77.81.55,1.48,1.31,2.25,1.93,1.25,1,2.53,2,3.79,3,.3.24.52.58.8.85,1.71,1.67,3.47,3.29,5.12,5,1.24,1.3,2.35,2.72,3.51,4.09,1,1.13,2,2.22,2.86,3.42,1.46,2,2.94,4.08,4.21,6.23,1.7,2.87,3.3,5.81,4.77,8.8,1.21,2.47,2.21,5,3.24,7.6a53.07,53.07,0,0,1,2.56,6.86c.84,3.37,1.31,6.82,1.95,10.24.23,1.27.46,2.54.72,3.8.74,3.61.49,7.25.47,10.89H184.55l.62-2.17,0-.7,0-1.24V86c.36-.69,0-1.24-.61-1.13-2.82.46-5.45-.74-8.21-.75-1,0-1-.43-.62-1.2a4.19,4.19,0,0,0,.23-1.24l0-8.11.14-.21c1.25-.59,2.49-1.2,3.75-1.76a6.58,6.58,0,0,1,1.26-.28l1.09.89,1,1.1.23.25.25.22,1.89,1.94.48.5,1.46,1.4,1,1,.72.72,1.18,1,.49.65L192,82.2l.7.39.21.37,1.42,1.45.52.43,1.56,1.61.74.23,1.15,0,.75-.37.77-1.2a.12.12,0,0,0,.15-.07l.21-.52v-.44l-.49-1.22-.46-.33-.83-1-2.78-2.72h0l-1.45-1.43-.23-.25a3.67,3.67,0,0,0-2.38-2.42l-5-5-2.15-2.41a.23.23,0,0,0-.09-.18c.08-.17.17-.33.25-.5l.55-.87.33-1,.34-.54.65-.49a10.19,10.19,0,0,0,.86,1.08c.17.16.5.34.68.28a.82.82,0,0,0,.42-.62,2.28,2.28,0,0,0-1.85-2.15c0-.16,0-.33,0-.49l.21-.74.08-.39c.12-.19.33-.37.34-.56a16,16,0,0,0-.87-6.85,2.36,2.36,0,0,0-.49-.57l-.21-.25-1.14-2.31-.36-.52-.45-.52-.5-.69-1.55-1.47,0-.31-.38.06-1.42-1a.15.15,0,0,0,0-.18l-.57-.3-.41-.17-2.15-.91-.84-.6q0-7.74.07-15.48l0-1.25V25.66c0-1.13,0-2.25,0-3.38l-.14-.57c-.56-1.15-1.29-2.08-2.74-2.06-.67,0-1.35,0-2,0l-81.27,0-1.79,0H86.56l-2.06-.13c-.18-.22-.36-.43-.53-.65L83.73,17c0-.31,0-.62-.08-.93l0-.5-.48-1.2-.12-.43ZM190,70.4c.39-1.9.2-2.77-1.12-3.17C188.46,69.05,188.72,69.87,190,70.4Zm2.6,17c.7-2.16.49-2.84-.89-2.85C191.92,87.17,191.92,87.17,192.57,87.36Z"/><path class="cls-1" d="M34.05,90.55c0-1.33,0-2.67.06-4s.07-2.37.19-3.55a55.53,55.53,0,0,1,.75-6.6c1.05-4.69,2.31-9.34,3.48-14,.35-1.37.63-2.76,1.08-4.1a22.19,22.19,0,0,1,1.16-2c1.3-2.78,2.45-5.63,3.85-8.35a61.45,61.45,0,0,1,3.76-6.29c1.94-2.87,4-5.66,6-8.46.73-1,1.52-1.95,2.28-2.93l3.66,2.36.73.46,1,.43,1,.2.35.32.53.13.91.13a1.64,1.64,0,0,0,2.21.41h1.67l2.15.51c0,2.46.09,4.93.13,7.4l0,2.4,0,1.67a7.61,7.61,0,0,0-.09.82q0,16.86,0,33.71a9.3,9.3,0,0,0,.13,1.06l.39.54h0c0,.41-.08.82-.1.94-1.2.14-2.21.21-3.19.39s-1.78.55-2.69.66-2,0-3,0c-.57,0-1.09.11-.74.9v2.15l.38,2.64Zm21.24-7.4A20.92,20.92,0,0,0,56,80.3c0-.29-.59-1-.82-.92-.41.08-1.06.55-1.06.86C54.14,81.21,53.9,82.3,55.29,83.15Zm4.9-23.32.77,1a6.49,6.49,0,0,0,.94-1,4.79,4.79,0,0,0,.6-1.53.84.84,0,0,0-.44-.7C61.41,57.44,60.16,58.8,60.19,59.83Zm5.43-6.77c-1.46-.91-1.71-.81-2.1.52-.08.27-.36.48-.48.74a8.44,8.44,0,0,0-.31,1c.42,0,1,.11,1.22-.11A19.2,19.2,0,0,0,65.62,53.06ZM55.83,87.64l-.94-3c-1.1,1.1-1.47,2.47-1,3.09C54.56,88.55,55.15,87.91,55.83,87.64ZM66.17,49.87c.1.1.32.54.62.61.56.14,1.58-1.29,1.5-2.12a1,1,0,0,0-.68-.65C66.93,47.61,66.19,48.63,66.17,49.87ZM56.81,74.58l-.66-1c-.26.33-.53.66-.77,1a.6.6,0,0,0-.09.34c.12.66-1,1.7.32,1.91s.82-1.18,1.2-1.82A2.21,2.21,0,0,0,56.81,74.58Zm-.74-4.23c.36.42.59,1,.84,1,1.39,0,1.06-1.22,1.24-2,.06-.27-.45-.67-.7-1Zm2.2-4.6c.55-.19,1.2-.24,1.28-.48a4.7,4.7,0,0,0,.11-1.8c0-.15-.37-.43-.5-.39a.87.87,0,0,0-.55.51C58.46,64.19,58.41,64.83,58.27,65.75Z"/><path class="cls-2" d="M234.5,90.87,235.62,92a13.36,13.36,0,0,1-1.38.66,2.61,2.61,0,0,1-.84,0H14c-.66,0-1.39,0-1.42-.87s.71-.9,1.37-.93l1,.24a10.57,10.57,0,0,0-1.39.2c-.18,0-.31.3-.46.46.16.13.32.37.49.38,1.06.06,2.13.09,3.19.09H232.9a2.9,2.9,0,0,0,.59,0,3.82,3.82,0,0,0,.66-.19l0-.31H185.25c-.48,0-1.11.17-1.11-.67.2,0,.39,0,.59,0l26.79,0c1,0,2-.07,3.08-.11h.47a4.45,4.45,0,0,0,.8.13h17.82A4.58,4.58,0,0,0,234.5,90.87Z"/><path class="cls-3" d="M54.91,27.26a14.62,14.62,0,0,1-2.33-10.47A15.24,15.24,0,0,1,58.49,6.58,24.6,24.6,0,0,1,61.12,5c0,.33,0,.66,0,1a18.4,18.4,0,0,0-5.23,4.83c1.27.83,3.28.07,4.22-1.5l1.51-.54c0,.1,0,.21,0,.31l-.42.63L61.17,11l0,.93-1,.81-.18.68L59.2,18l-.66.6-2.44.1,0-.25c1.82-.27,1.81-.27,1.94-2.1,0-.59.13-1.18.22-1.77s.26-1.45.39-2.18a16.86,16.86,0,0,1-2.25-.27c-.83-.2-1.2.18-1.45.84-.41,1-.8,2.06-1.19,3.1a31.91,31.91,0,0,0-.67,3.72c0,.57.41,1.18.63,1.78l.06.33-.07,1.29c-.39,1,.18,1.69,1,2.24l.5.15,0,0,0,.47-.23.51Z"/><path class="cls-4" d="M34.05,90.55H62.17l-.38-2.64c.54.77,1.1,1.53,1.59,2.33.11.19-.05.55-.09.84l-.71,0-1.2-.06-.46,0H60.4L59.7,91l-.48,0H33.8l-1.44,0a.67.67,0,0,1,0-.2Z"/><path class="cls-4" d="M214.6,90.88c-1,0-2.06.11-3.08.11l-26.79,0c-.2,0-.39,0-.59,0-.66-.11-1-.29-.39-1s.95-1.14,1.42-1.71l-.62,2.17h28.12Z"/><path class="cls-2" d="M5.25,92.69a24.65,24.65,0,0,1-3.1,0c-.42-.05-.78-.57-1.16-.88.35-.3.7-.84,1.06-.86q3.23-.12,6.45,0c.42,0,.81.57,1.22.88-.41.29-.8.78-1.25.83a26.57,26.57,0,0,1-3.22,0Z"/><path class="cls-5" d="M70.48,3.43a13.56,13.56,0,0,1,8,3.76L78,8,74.57,5.86l-.28.33.55,1.62-1,.09L72,5.93l-.58-.39L70.88,5a6.47,6.47,0,0,1-.3-.77A5,5,0,0,1,70.48,3.43Z"/><path class="cls-6" d="M241.85,92.7c-1,0-2.07,0-3.09,0-.32,0-.87-.5-.84-.69.07-.37.46-1,.73-1,2.18-.08,4.36-.07,6.54,0,.26,0,.77.68.7.86a1.47,1.47,0,0,1-.95.81,28.93,28.93,0,0,1-3.09,0Z"/><path class="cls-5" d="M61.14,6c0-.32,0-.65,0-1l3.95-1.41,1.6.72L65,5c-.32-1.18-.42-1.18-2.39-.17.14.79.72.91,1.39.9l-.2.47h0L61.64,8.79l-1.51.54,2.1-3.49Z"/><path class="cls-7" d="M60.36,32.64,56.7,30.28,56.16,29l.94-.48c.34.25.69.49,1,.75.9.7,1.77,1.44,2.71,2.09.16.11.56-.13.85-.2l.76,1.16-1.09-.14-2.87-1.79-.21.29,2.21,1.86A.86.86,0,0,1,60.36,32.64Z"/><path class="cls-8" d="M66.67,4.33l-1.6-.72a9.58,9.58,0,0,1,5.41-.18,5,5,0,0,0,.1.79,6.47,6.47,0,0,0,.3.77L69.8,4.74a.38.38,0,0,0,0-.21l-.93-.41-1.58.23Z"/><path class="cls-4" d="M234.5,90.87a4.58,4.58,0,0,1-.81.14H215.87a4.45,4.45,0,0,1-.8-.13c1.58,0,3.17-.09,4.76-.08Q227.17,90.82,234.5,90.87Z"/><path class="cls-8" d="M78,8l.45-.83c.95,1,1.91,2.07,2.86,3.1l0,.5-1,0-.45-.47Z"/><path class="cls-4" d="M14.87,91.11l-1-.24H29.5l-.49.21Z"/><path class="cls-9" d="M57.1,28.47l-.94.49-.27-.27-.17-.19-.8-1.24c0-.22,0-.44,0-.66l.23-.51c0-.16,0-.31,0-.47l.88.19.33.26,0,.37c-.54,1.29-.43,1.62.69,2Z"/><path class="cls-7" d="M81.26,10.79l0-.5.6.32,1.2,3.33Z"/><path class="cls-2" d="M29,91.09l.49-.21h2.85a.67.67,0,0,0,0,.2Z"/><path class="cls-7" d="M55.72,28.5l.17.19Z"/><path class="cls-10" d="M185.17,88.39c-.47.57-.91,1.18-1.42,1.71s-.27.85.39,1c0,.84.63.66,1.11.67h48.86l0,.31a3.82,3.82,0,0,1-.66.19,2.9,2.9,0,0,1-.59,0H63.54l-.25-1.16c0-.29.2-.65.09-.84-.49-.8-1.05-1.56-1.59-2.33,0-.71,0-1.43,0-2.15a7.22,7.22,0,0,1,1.37-.27q5,0,10,0,19.16,0,38.33,0a1.64,1.64,0,0,1,1.18.58,3,3,0,0,0,2.77,1.32c5.39,0,10.78,0,16.17-.08a7.08,7.08,0,0,0,2.41-1c.58-.27,1.15-.78,1.72-.78q24.07,0,48.15,0a3.55,3.55,0,0,1,1.23.5v.44l0,1.24Z"/><path class="cls-11" d="M71.11,82.3A9.3,9.3,0,0,1,71,81.24q0-16.84,0-33.71a7.61,7.61,0,0,1,.09-.82h.61c0,.23,0,.6.15.67,1,.52.81,1.45.81,2.3V76.63c0,1.42,0,2.84,0,4.27a9.54,9.54,0,0,0,.21,1.31l.95-1.72,1,.23.49,0c.91.06,1.81.16,2.72.16q46.26,0,92.53,0a4.07,4.07,0,0,0,1.17-.37c.67.69,1.16.48,1.33-.35a6.92,6.92,0,0,0,0-1.7c0-.87-.36-1.87,0-2.57.67-1.39-.1-1.67-1.1-2v-.34l3.34-.28.68.3,0,8.11a7.45,7.45,0,0,1-.69,1c-.45.44-1,.81-1.45,1.21a9.47,9.47,0,0,0-1.48-.23q-19.56,0-39.12,0c-4.87,0-9.74,0-14.61,0l-46.43-.23-.68-.54h0Z"/><path class="cls-4" d="M173.83,83.85c.49-.4,1-.77,1.45-1.21a7.45,7.45,0,0,0,.69-1,4.19,4.19,0,0,1-.23,1.24c-.41.77-.4,1.2.62,1.2,2.76,0,5.39,1.21,8.21.75.65-.11,1,.44.61,1.13a3.55,3.55,0,0,0-1.23-.5q-24.07-.06-48.15,0c-.57,0-1.14.51-1.72.78a7.08,7.08,0,0,1-2.41,1c-5.39.1-10.78,0-16.17.08a3,3,0,0,1-2.77-1.32,1.64,1.64,0,0,0-1.18-.58q-19.17,0-38.33,0-5,0-10,0a7.22,7.22,0,0,0-1.37.27c-.35-.79.17-.89.74-.9,1,0,2,.09,3,0s1.78-.49,2.69-.66,2-.25,3.19-.39c0-.12.06-.53.1-.94l.68.54c.27,1,1.14.69,1.78.69q49.44,0,98.87,0A4.46,4.46,0,0,0,173.83,83.85Zm-59.45,1.26a.42.42,0,0,0-.24-.18c-.34-.08-.69-.1-1-.15,0,.32,0,.78.14.93a4.12,4.12,0,0,0,1.61,1,11.87,11.87,0,0,0,2.39,0h14.59c1.41,0,2-.5,2.09-2-.45.11-.84.22-1.24.31a2.47,2.47,0,0,1-.76.09,13,13,0,0,0-1.83-.32q-6.93,0-13.87,0A12.79,12.79,0,0,0,114.38,85.11Z"/><path class="cls-12" d="M88,19.65l1.79,0,81.27,0c.68,0,1.36,0,2,0a9.71,9.71,0,0,1,.81.75c.4.45.77.92,1.15,1.39-1.6.8-2.13,2.18-1.29,4,.1-.27.16-.42.22-.57.31-.82.61-1.65,1-2.46.07-.16.4-.2.6-.29,0,.8-.05,1.61-.08,2.41a3.33,3.33,0,0,0-.91.68c-.53.78-1,1.62-1.46,2.44-.14-.5-.49-1-.38-1.48a4.09,4.09,0,0,0-.58-3.55v-.72l1.42-1c-.48-.27-.94-.73-1.44-.78a29,29,0,0,0-2.94.08H91.44c-1,0-2.06-.24-3.08-.17a8.2,8.2,0,0,0-2.51.63c-.21.08-.21.7-.25.88l1.91-.13c0,1,.7.66,1.21.72L170,22.28h1.44V23H87.36a3.35,3.35,0,0,0-1.19.05c-1.81.72-3.43-.24-5.13-.52a8.29,8.29,0,0,0,1.22-.27c.25-.08.61-.27.65-.47a1,1,0,0,0-.3-.81,1.72,1.72,0,0,0-.92-.13c-2.15,0-4.31,0-6.46,0-.72,0-1.4-.26-2,.47-.47.55-.7-.06-.81-.5l.93-1.18H83.49l.22,0a2.31,2.31,0,0,0,2.85,0H88Z"/><path class="cls-13" d="M188.43,78.6l-1-1c-.23-.49-.47-1-.7-1.45l-1.93-2.39c-.1-.38-.41-.93-.27-1.11a22,22,0,0,1,2-2,20.64,20.64,0,0,0,2,2.2c1,.86,2.16,1.57,3.25,2.34l.26.27.27.69a28.55,28.55,0,0,0,2,3,29.57,29.57,0,0,0,2.53,2.34c.44.43.79.47,1.11-.1l.47.07.83,1c-.42.51-.77,1,.33,1l.22.47-.11.77c-1.15-.09-.9.75-.93,1.41l-.23.07-1.86-1.39c-.19-1.55-.41-2-1.37-2.35.8,1.82.8,1.82-.44,2.27l-.52-.43c.11-1-.41-1.49-1.42-1.45l-.21-.37a2.39,2.39,0,0,0-1.8-2.63c-.15,0-.39.26-.59.4l-1.18-1Z"/><path class="cls-9" d="M181.62,46.94l1.55,1.47.5.69.45.52.36.52,1.14,2.31c-.64,0-1.14,0-1.3-.83-.06-.39-.54-.71-.83-1.07l-.33.24c.81,1.45.57,3.39,2.18,4.46L186,53.9l.48,2.17c-.29.28-.79.52-.85.84-.24,1.35-.33,2.73-.53,4.09a2.86,2.86,0,0,1-.44.82l-.56-.24a3.08,3.08,0,0,1,0-.8,11.62,11.62,0,0,0-.58-6.87,9.93,9.93,0,0,0-.93-1.6l0-.09c-1-1.23-2-2.54-3.09-3.67A13.92,13.92,0,0,0,177,46.9l.85-.32-.36-.55h-4.14l-1.4,0-.2,0-1.27-1a4.54,4.54,0,0,0,1-.47c1.43-1.16,2.75-1,4.12.16.45.39,1.49.09,2.26.11l1,.19.41.17c0,.09.06.18.1.28l.49.2,1.42,1Z"/><path class="cls-9" d="M175.94,73.58l-.67-.3c-1.09-.1-2.17-.2-3.25-.27,0,0-.09.2-.13.31l-.48,0-.45-.08v-.42a3.71,3.71,0,0,1,1.16-.45c.75,0,.8-.45.77-1l1.89-.67.27-.06a3.31,3.31,0,0,0,3.47-1c.08-.09,0-.36,0-.54L181.18,67c.42.57.75.36,1-.12l1,.47c.26,1.55-.33,2.42-1.91,2.9-.21.06-.36.34-.54.52-1.49.67-3,1.33-4.47,2-.13.06-.12.39-.18.6Z"/><path class="cls-12" d="M176,25.66v1.15c-.72.4-.71.82,0,1.25q0,7.74-.07,15.48l-.35-.2a11.68,11.68,0,0,1-.47-1.49c-.26-1.57.64-3.34-.89-4.69-.15-.13-.08-.53-.08-.8,0-2.35-.16-4.72.07-7a14.75,14.75,0,0,1,1.4-3.71Z"/><path class="cls-14" d="M83.49,19.62H73.31c-1.47-.83-3-.34-4.59-.38.37-.2.73-.55,1.1-.56q3.18-.08,6.38,0c.91,0,1.21-.39,1.21-1.2s0-1.48,0-2.22H78c0,.8,0,1.61,0,2.41s.28,1,1,1c1,0,2,.06,3,0,.35,0,.93-.5.93-.77,0-2.33-.35-4.54-2.26-6.19-.21-.17-.2-.61-.29-.92l1,0,1.83,3.15.12.43,0,.47.49,1.23c0,.31,0,.62.08.93Z"/><path class="cls-15" d="M180.73,70.74c.18-.18.33-.46.54-.52,1.58-.48,2.17-1.35,1.91-2.9h.7l.49.48,1.94,1.89.26,1a22,22,0,0,0-2,2c-.14.18.17.73.27,1.11s0,.48,0,.73l-.7-.73v-.28c.14-1.33-1-1.47-1.81-2.15l-.15.86-1.09-.89Z"/><path class="cls-13" d="M184.64,61.82a2.86,2.86,0,0,0,.44-.82c.2-1.36.29-2.74.53-4.09.06-.32.56-.56.85-.84l.07,0,0,5,.06.73,0,.49a.52.52,0,0,0-.21,0l-.45.75-.1,1.11c-.11.18-.23.36-.35.54l-1.33-.53v-.48l.23-.48Z"/><path class="cls-16" d="M175.51,43.34l.35.2.85.6,1.18.72c-.77,0-1.81.28-2.26-.11-1.37-1.15-2.69-1.32-4.12-.16a4.54,4.54,0,0,1-1,.47l-1.17,0-1-1c.77-.16,1.55-.27,2.29-.5a6.49,6.49,0,0,0,1.21-.71l1.27.45Z"/><path class="cls-16" d="M198,81.47c-.32.57-.67.53-1.11.1a29.57,29.57,0,0,1-2.53-2.34,28.55,28.55,0,0,1-2-3l.21-.15,1.45,1.1.23.25.26.71.69.49.5.23h0Z"/><path class="cls-17" d="M186.57,70.69c-.09-.33-.17-.66-.26-1l.28,0,5,5,.19.51c-1.09-.77-2.23-1.48-3.25-2.34A20.64,20.64,0,0,1,186.57,70.69Z"/><path class="cls-13" d="M186,53.9l-.64,1.35c-1.61-1.07-1.37-3-2.18-4.46l.33-.24c.29.36.77.68.83,1.07.16.84.66.88,1.3.83l.21.25Z"/><path class="cls-14" d="M194.87,84.84c1.24-.45,1.24-.45.44-2.27,1,.4,1.18.8,1.37,2.35l1.86,1.39c-.08.13-.15.26-.22.4l-1.15,0-.74-.23Z"/><path class="cls-18" d="M186.37,62.34a.52.52,0,0,1,.21,0,2.28,2.28,0,0,1,1.85,2.15.82.82,0,0,1-.42.62c-.18.06-.51-.12-.68-.28a10.19,10.19,0,0,1-.86-1.08c0-.23-.07-.47-.1-.71Z"/><path class="cls-18" d="M190,70.4c-1.25-.53-1.51-1.35-1.12-3.17C190.17,67.63,190.36,68.5,190,70.4Z"/><path class="cls-17" d="M176,25.66l-.43-.05-.06-.7c0-.8.06-1.61.08-2.41-.16-.24-.33-.48-.5-.71-.38-.47-.75-.94-1.15-1.39a9.71,9.71,0,0,0-.81-.75c1.45,0,2.18.91,2.74,2.07,0,.18.09.37.14.56Z"/><path class="cls-4" d="M186,53.9l-.15-1.2a2.36,2.36,0,0,1,.49.57,16,16,0,0,1,.87,6.85c0,.19-.22.37-.34.56,0-.47,0-1-.06-1.42-.08-1-.17-2.1-.26-3.15l-.07,0Z"/><path class="cls-18" d="M192.57,87.36c-.65-.19-.65-.19-.89-2.85C193.06,84.52,193.27,85.2,192.57,87.36Z"/><path class="cls-13" d="M183.88,67.33h-.7l-1-.47v-.48l1.19-1,1.19.73c0,.15,0,.3,0,.45l-.25.5Z"/><path class="cls-4" d="M180.73,70.74l.36.59a6.58,6.58,0,0,0-1.26.28c-1.26.56-2.5,1.17-3.75,1.76.06-.21,0-.54.18-.6C177.74,72.07,179.24,71.41,180.73,70.74Z"/><path class="cls-14" d="M190.33,80.36c.2-.14.44-.44.59-.4a2.39,2.39,0,0,1,1.8,2.63l-.7-.39L190.82,81Z"/><path class="cls-17" d="M186.53,56.11c.09,1,.18,2.1.26,3.15,0,.47,0,1,.06,1.42,0,.13,0,.26-.08.39h-.27Z"/><path class="cls-11" d="M182.18,72.22l.15-.86c.79.68,1.95.82,1.81,2.15l-.25.22-.24.06-.25-.22-.23-.25Z"/><path class="cls-9" d="M184.61,66.13l-1.19-.73.72-1.19,1.33.53c-.1.32-.21.65-.32,1a.25.25,0,0,0-.22,0l-.28.45Z"/><path class="cls-4" d="M198,81.47l-2.31-2.65,2.78,2.72Z"/><path class="cls-14" d="M184.84,74.52c0-.25,0-.49,0-.73l1.93,2.39-.76,0-.48-.5Z"/><path class="cls-4" d="M191.78,75.23l-.19-.51A3.67,3.67,0,0,1,194,77.14L192.52,76,192,75.5Z"/><path class="cls-4" d="M186.59,69.67l-.28,0-1.94-1.89c0-.18,0-.36.07-.55Z"/><path class="cls-17" d="M86.56,19.66a2.31,2.31,0,0,1-2.85,0l.26-.08.53,0Z"/><path class="cls-4" d="M184.84,74.52l.7,1.21-1.89-1.94.24-.06.25.06Z"/><path class="cls-7" d="M84,19.56l-.26.08-.22,0L83.73,17,84,18.88Z"/><path class="cls-4" d="M186,76.23l.76,0c.23.48.47,1,.7,1.45Z"/><path class="cls-14" d="M198.77,86.24c0-.66-.22-1.5.93-1.41.05.1.1.21.14.31l-.77,1.2Z"/><path class="cls-4" d="M177.89,44.86l-1.18-.72,2.14.91Z"/><path class="cls-4" d="M199.81,84.06c-.08-.16-.15-.31-.22-.47s.09-.47.13-.7c.17.41.33.82.49,1.22Z"/><path class="cls-4" d="M195.65,78.82l-.5-.23-.69-.49-.26-.71Z"/><path class="cls-17" d="M192.93,83c1,0,1.53.4,1.42,1.45Z"/><path class="cls-4" d="M186.37,63c0,.24.07.48.1.71l-.65.49c0-.37.07-.74.1-1.11Z"/><path class="cls-4" d="M190.82,81,192,82.2Z"/><path class="cls-17" d="M175.93,28.06c-.68-.43-.69-.85,0-1.25Z"/><path class="cls-16" d="M199.72,82.89c0,.23-.09.47-.13.7-1.1,0-.75-.52-.33-1Z"/><path class="cls-4" d="M83.16,14.84l0-.47.48,1.2Z"/><path class="cls-7" d="M83.16,14.84l.53.73c0,.17,0,.33,0,.5C83.49,15.66,83.33,15.25,83.16,14.84Z"/><path class="cls-4" d="M198.77,86.24l.3.1-.75.37c.07-.14.14-.27.22-.4Z"/><path class="cls-4" d="M185.15,87.69l0-1.24Z"/><path class="cls-4" d="M188.43,78.6l.72.72Z"/><path class="cls-17" d="M199.81,84.06l.4,0v.44l-.21.52a.12.12,0,0,1-.15.07c0-.1-.09-.21-.14-.31C199.74,84.57,199.77,84.32,199.81,84.06Z"/><path class="cls-4" d="M186.5,61.08h.27l-.21.74Z"/><path class="cls-4" d="M184.93,65.69a.25.25,0,0,1,.22,0l-.55.87c0-.15,0-.3,0-.45h0C184.74,66,184.83,65.84,184.93,65.69Z"/><path class="cls-17" d="M184.44,67.26c0,.19-.05.37-.07.55l-.49-.48.47-.25A.23.23,0,0,1,184.44,67.26Z"/><path class="cls-4" d="M84,19.56v-.68c.17.22.35.43.53.65Z"/><path class="cls-4" d="M196.43,86.45l.74.23Z"/><path class="cls-4" d="M183.67,49.1l-.5-.69Z"/><path class="cls-4" d="M179.36,45.5c0-.1-.07-.19-.1-.28l.57.3Z"/><path class="cls-4" d="M176,22.28c0-.19-.09-.38-.14-.56C175.89,21.9,175.93,22.09,176,22.28Z"/><path class="cls-4" d="M181.62,46.94l-.35-.25.38-.06Z"/><path class="cls-17" d="M179.36,45.5l.47,0a.15.15,0,0,1,0,.18Z"/><path class="cls-4" d="M200,85.07l.21-.52Z"/><path class="cls-4" d="M184.48,50.14l-.36-.52Z"/><path class="cls-4" d="M183.17,73.32l.23.25Z"/><path class="cls-17" d="M88,19.65h0Z"/><path class="cls-11" d="M71.13,45c0-.8,0-1.6,0-2.4.61.07.89-.18.85-.8s0-1,0-1.43c0-1-.3-2.07.91-2.7.16-.08,0-.69,0-1.05h.72v6.08c0,.6,0,1.13-.7,1.46-.25.11-.31,1.32-.24,1.33,1.19.37.93,1.32.94,2.16l-.72-.61-1-.83C71.9,45.68,72.15,44.93,71.13,45Z"/><path class="cls-8" d="M61.36,32.14l1.09.14-.76-1.16c-.56-1-1.11-1.95-1.66-2.92l.95-.41.4.7.36.54,1.09,1.62.74.71h0c.33,1.36,1.63,1.57,2.59,2.19,1.2.06,2.41.15,3.61.16.17,0,.33-.38.49-.58l.46-.06,0,1-.74.4-1.15.29H67.14l-2.21-.41L64,34.18l-.2-.2-.68-.25-1-.2-.69-.5a.83.83,0,0,1,0-.22Z"/><path class="cls-12" d="M72.89,36.66c0,.36.11,1,0,1.05-1.21.63-.88,1.72-.91,2.7,0,.48,0,1,0,1.43s-.24.87-.85.8c0-2.47-.09-4.94-.13-7.4.07-.17.13-.33.2-.49a12.61,12.61,0,0,1,1.2,1A4.38,4.38,0,0,1,72.89,36.66Z"/><path class="cls-18" d="M55.29,83.15c-1.39-.85-1.15-1.94-1.15-2.91,0-.31.65-.78,1.06-.86.23,0,.86.63.82.92A20.92,20.92,0,0,1,55.29,83.15Z"/><path class="cls-18" d="M60.19,59.83c0-1,1.22-2.39,1.87-2.28a.84.84,0,0,1,.44.7,4.79,4.79,0,0,1-.6,1.53,6.49,6.49,0,0,1-.94,1Z"/><path class="cls-18" d="M65.62,53.06A19.2,19.2,0,0,1,64,55.22c-.22.22-.8.08-1.22.11a8.44,8.44,0,0,1,.31-1c.12-.26.4-.47.48-.74C63.91,52.25,64.16,52.15,65.62,53.06Z"/><path class="cls-18" d="M55.83,87.64c-.68.27-1.27.91-1.92.09-.49-.62-.12-2,1-3.09Z"/><path class="cls-18" d="M66.17,49.87c0-1.24.76-2.26,1.44-2.16a1,1,0,0,1,.68.65c.08.83-.94,2.26-1.5,2.12C66.49,50.41,66.27,50,66.17,49.87Z"/><path class="cls-18" d="M56.81,74.58a2.21,2.21,0,0,1,0,.44c-.38.64,0,2-1.2,1.82s-.2-1.25-.32-1.91a.6.6,0,0,1,.09-.34c.24-.33.51-.66.77-1Z"/><path class="cls-18" d="M56.07,70.35l1.38-2c.25.34.76.74.7,1-.18.78.15,2-1.24,2C56.66,71.31,56.43,70.77,56.07,70.35Z"/><path class="cls-18" d="M58.27,65.75c.14-.92.19-1.56.34-2.16a.87.87,0,0,1,.55-.51c.13,0,.49.24.5.39a4.7,4.7,0,0,1-.11,1.8C59.47,65.51,58.82,65.56,58.27,65.75Z"/><path class="cls-12" d="M71.13,45c1-.11.77.64.8,1.2l-.24.48h-.61Z"/><path class="cls-4" d="M71.16,34.75l-.2.49-2.15-.51L70,34.44h.87Z"/><path class="cls-4" d="M64.93,34.31l2.21.41A1.64,1.64,0,0,1,64.93,34.31Z"/><path class="cls-4" d="M61.41,33l.69.5-1-.43Z"/><path class="cls-7" d="M61.41,33l-.32.07-.73-.46a.86.86,0,0,0,.13-.14l.89.31A.83.83,0,0,0,61.41,33Z"/><path class="cls-4" d="M63.82,34l.2.2-.53-.13Z"/><path class="cls-7" d="M63.82,34l-.33.07-.35-.32Z"/><path class="cls-4" d="M71.11,82.3l.39.54Z"/><path class="cls-6" d="M63.29,91.08l.25,1.16H16.7c-1.06,0-2.13,0-3.19-.09-.17,0-.33-.25-.49-.38.15-.16.28-.42.46-.46a10.57,10.57,0,0,1,1.39-.2l14.14,0h3.35l1.44,0H59.22l.48,0,.7.07h.52l.46,0,1.2.06Z"/><path class="cls-19" d="M53.78,16.07C54.17,15,54.56,14,55,13c.25-.66.62-1,1.45-.84a16.86,16.86,0,0,0,2.25.27c-.13.73-.27,1.45-.39,2.18s-.18,1.18-.22,1.77c-.13,1.83-.12,1.83-1.94,2.1l-1.46,0-.46,0Z"/><path class="cls-19" d="M56.05,25.81l-.88-.19,0,0c-.46-1.22-.92-2.45-1.39-3.68l-.06-.33c.07-.65.13-1.31.19-2h1.2c2.72,0,2.67,0,3,2.73A16.15,16.15,0,0,0,58.86,25l0,.29Z"/><path class="cls-20" d="M61.14,6l1.09-.16-2.1,3.49c-.94,1.57-3,2.33-4.22,1.5A18.4,18.4,0,0,1,61.14,6Z"/><path class="cls-20" d="M59.92,13.42c0,.45.13.89.14,1.34,0,.18-.16.36-.22.54-.68,2-.21,2.67,1.81,2.67,1.47,0,2.95,0,4.43,0,.77,0,1.08-.29,1.06-1.06,0-1.15,0-2.31,0-3.46,0-.7-.25-1.06-1-1s-1.66.12-2.5.12c-.21,0-.42-.2-.63-.31L64,12l.44,0h.28l1,0,1.83.2.22.56c0,1.67-.07,3.35-.11,5l-1,.77-.94,0H59.94L59.2,18Z"/><path class="cls-21" d="M61.26,9.73c.33.27.65.75,1,.78a30.78,30.78,0,0,0,4,0c.32,0,.87-.41.88-.65.08-1.58,0-3.16,0-5L63.78,6.23l.2-.47L65,5l1.69-.7.61,0a11.19,11.19,0,0,1,.32,1.59c.09,1.22.1,2.44.15,3.66-.09,1.49-1.1,1.7-2.3,1.66l-1-.21L61.17,11Z"/><path class="cls-14" d="M61.86,18.45H65.7l.94,0,1.59.87-.85.05c-.07,0-.13-.13-.19-.13-2.51,0-5-.07-7.51-.06-.37,0-.84.49-1.07.37-1.52-.79-3.11-.22-4.65-.34l.24-.79.46,0,1.44.22,2.44-.09,1.4-.16h1.92Z"/><path class="cls-5" d="M54.2,18.46l-.24.79,0,.36c-.06.65-.12,1.31-.19,2-.22-.6-.67-1.21-.63-1.78a31.91,31.91,0,0,1,.67-3.72Z"/><path class="cls-22" d="M61.17,11l3.33.05c0,.23,0,.46,0,.69a.76.76,0,0,0,0,.21L64,12l-1,.1-.65.07-1.22-.23Z"/><path class="cls-7" d="M53.8,21.9c.47,1.23.93,2.46,1.39,3.68l-.5-.15-1-2.24Z"/><path class="cls-21" d="M63.77,6.23c-.69,1-1.39,1.91-2.09,2.87,0-.1,0-.21,0-.31Z"/><path class="cls-20" d="M61.15,11.93l1.22.23-2.27.58Z"/><path class="cls-14" d="M53.73,23.19l1,2.24C53.91,24.88,53.34,24.24,53.73,23.19Z"/><path class="cls-7" d="M59.94,18.45l-1.4.16L59.2,18Z"/><path class="cls-5" d="M56.1,18.7l-1.44-.22,1.46,0C56.11,18.54,56.11,18.62,56.1,18.7Z"/><path class="cls-14" d="M55.13,26.09l-.23.51Z"/><path class="cls-2" d="M62.58,91.11l-1.2-.06Z"/><path class="cls-2" d="M60.92,91.09h0Z"/><path class="cls-2" d="M59.7,91l-.48,0Z"/><path class="cls-2" d="M34.05,91.06h0Z"/><path class="cls-2" d="M55.39,91.07h0Z"/><path class="cls-19" d="M69.8,4.74,70.88,5l.57.55.58.39,1.83,2c-.48.79.09.89.65,1l.11,0,.11,0,.08.44-.24,1.43-1,0a2.35,2.35,0,0,0-.72-.37c-1.35-.13-2.71-.21-4.07-.31l-.21-.48c0-.11,0-.22.07-.33l.23-.13c.56-.51.62-1,0-1.46l-.21-.26v-2l.22-.09Z"/><path class="cls-20" d="M74.51,8.88c-.56-.09-1.13-.19-.65-1l1-.09-.55-1.62.28-.33L78,8c.63.76,1.25,1.52,1.88,2.27l-.27.83a4.32,4.32,0,0,0-1.47-.21c-.87.18-1.24-.26-1.57-.91l-.48-.94-1-.91Z"/><path class="cls-20" d="M72,5.93l-.58-.39Z"/><path class="cls-16" d="M65,5l-1,.73c-.67,0-1.25-.11-1.39-.9C64.56,3.85,64.66,3.85,65,5Z"/><path class="cls-23" d="M60,28.2c.55,1,1.1,1.95,1.66,2.92-.29.07-.69.31-.85.2-.94-.65-1.81-1.39-2.71-2.09-.34-.26-.69-.5-1-.75h0c0-.55-1-1.08,0-1.65l.94,0,.88.1.76.75Z"/><path class="cls-24" d="M61.38,32.81l-.89-.31-2.21-1.86.21-.29,2.87,1.79C61.36,32.36,61.37,32.58,61.38,32.81Z"/><path class="cls-5" d="M68.68,9.25c0,.11,0,.22-.07.33l-.86,0c0-1.22-.06-2.44-.15-3.66a11.19,11.19,0,0,0-.32-1.59l1.58-.23c-.07.42-.13.84-.19,1.26v2c0,.17,0,.35,0,.52v.39Z"/><path class="cls-7" d="M68.67,5.38c.06-.42.12-.84.19-1.26l.93.41c-.46.07-1.12-.11-.9.76Z"/><path class="cls-20" d="M68.89,5.29c-.22-.87.44-.69.9-.76a.38.38,0,0,1,0,.21Z"/><path class="cls-7" d="M79.59,11.12l.27-.83.45.47c.09.31.08.75.29.92,1.91,1.65,2.29,3.86,2.26,6.19,0,.27-.58.73-.93.77-1,.1-2,0-3,0-.72,0-1-.29-1-1s0-1.61,0-2.41h-.54c0,.74,0,1.48,0,2.22s-.3,1.23-1.21,1.2q-3.2-.09-6.38,0c-.37,0-.73.36-1.1.56l-.49.12-1.59-.87,1-.77a5.42,5.42,0,0,0,.7-.54,3.51,3.51,0,0,0,.37-.66c.22,1.71.22,1.72,1.93,1.71s3.36-.08,5,0c1.09.07,1.46-.27,1.31-1.32s-.29-2.35-.43-3.53h1.17c.21.71.48,1.41.62,2.13s-.06,2.08.42,2.44,1.74.19,2.65.23h.12c.85.14,1.1-.34.93-1.05-.36-1.41-.76-2.82-1.22-4.2a1.24,1.24,0,0,0-.86-.69c-1,0-2,.12-2.93.2,0-1,.77-.76,1.26-.63C79.46,12,79.69,11.84,79.59,11.12Z"/><path class="cls-7" d="M57.06,26.83c-1,.57,0,1.1,0,1.65-1.12-.42-1.23-.75-.69-2Z"/><path class="cls-7" d="M56.05,25.81l2.83-.5c.15.73-.28.82-.85.77H56.38Z"/><path class="cls-14" d="M56.38,26.07H58c0,.17,0,.34,0,.51a.75.75,0,0,0,0,.21l-.94,0-.65-.39Z"/><path class="cls-25" d="M171,73.26l.45.08.32.52.07.65V75l0,2a.17.17,0,0,0,0,.21v.51a.15.15,0,0,0,0,.2l0,1.74a.1.1,0,0,0,0,.17l-.08.73a4.07,4.07,0,0,1-1.17.37q-46.26,0-92.53,0c-.91,0-1.81-.1-2.72-.16l.09-.46a9.5,9.5,0,0,0,1.06.1l21.12,0h44.58c2.34,0,4.69,0,7,0,6.9,0,13.8,0,20.7,0,1,0,1.47-.24,1.37-1.33s0-1.91,0-2.87c0-2,0-2.13-2-2.48a14.14,14.14,0,0,1-7.06-3.25,47.8,47.8,0,0,1-3.84-4.19,18.07,18.07,0,0,1-.68-1.72c-.23-.82-.38-1.65-.56-2.48l.41.52.37,1a21.71,21.71,0,0,0,1.36,2.88,12.2,12.2,0,0,0,5.68,5.08L166,72A7.41,7.41,0,0,0,171,73.26Z"/><path class="cls-6" d="M74.83,80.72l-1-.23v-1l.24-.47,0-.47c.12-.12.36-.24.36-.36,0-2.7-.13-5.4-.13-8.1q0-21.64,0-43.3v-.48L74.1,24.2l.77-.65a1.42,1.42,0,0,1,2.33.6l-1.44,0-.47.26h0c-.75.35-.69.75-.08,1.19,0,.79.1,1.59.1,2.38q0,14.93,0,29.87c0,.43.07.86.1,1.29l0,13.17v.5l0,1.9-.19,3.34c-.62.34-.61.67,0,1v.46Z"/><path class="cls-8" d="M173.83,83.85a4.46,4.46,0,0,1-1,.24q-49.44,0-98.87,0c-.64,0-1.51.35-1.78-.69l46.43.23c4.87,0,9.74,0,14.61,0q19.56,0,39.12,0A9.47,9.47,0,0,1,173.83,83.85Z"/><path class="cls-26" d="M73.83,79.53v1l-1,1.72a9.54,9.54,0,0,1-.21-1.31c0-1.43,0-2.85,0-4.27V49.69c0-.85.23-1.78-.81-2.3-.13-.07-.1-.44-.15-.67l.24-.48,1,.83.72.61V70.42c0,1.82.08,3.63,0,5.43a3.88,3.88,0,0,0,.53,2.75l0,.46Z"/><path class="cls-10" d="M171.74,80.48c0-.24.06-.49.08-.73a.1.1,0,0,0,0-.17l0-1.74s.06,0,.05-.06a.39.39,0,0,0-.05-.14v-.51s.06,0,.05-.06a.38.38,0,0,0-.05-.15c0-.65,0-1.3,0-2,0-.16,0-.31,0-.46l-.07-.65a.39.39,0,0,1,.18,0c1,.29,1.77.57,1.1,2-.33.7,0,1.7,0,2.57a6.92,6.92,0,0,1,0,1.7C172.9,81,172.41,81.17,171.74,80.48Z"/><path class="cls-24" d="M171.89,73.32c0-.11.09-.32.13-.31,1.08.07,2.16.17,3.25.27l-3.35.28Z"/><path class="cls-2" d="M74.83,80.72l.39-1.18.19.7-.09.46Z"/><path class="cls-8" d="M171.89,73.32l0,.24v.34a.39.39,0,0,0-.18,0l-.32-.52Z"/><path class="cls-21" d="M114.38,85.11a12.79,12.79,0,0,1,1.84-.29q6.93,0,13.87,0a13,13,0,0,1,1.83.32,2.47,2.47,0,0,0,.76-.09c.4-.09.79-.2,1.24-.31-.13,1.49-.68,2-2.09,2H117.24a11.87,11.87,0,0,1-2.39,0,4.12,4.12,0,0,1-1.61-1c-.18-.15-.1-.61-.14-.93.35,0,.7.07,1,.15A.42.42,0,0,1,114.38,85.11Z"/><path class="cls-26" d="M171.43,22.28H170l-81.27.24-1.21-.72-1.91.13c0-.18,0-.8.25-.88a8.2,8.2,0,0,1,2.51-.63c1-.07,2.06.17,3.08.17h77.75a29,29,0,0,1,2.94-.08c.5.05,1,.51,1.44.78l-1.42,1Z"/><path class="cls-10" d="M77.2,24.15a1.42,1.42,0,0,0-2.33-.6l-.77.65c-.08-.55-.16-1.11-.25-1.66H81c1.7.28,3.32,1.24,5.13.52A3.35,3.35,0,0,1,87.36,23h84.79a4.09,4.09,0,0,1,.58,3.55c-.11.44.24,1,.38,1.48,0,3.27,0,6.55,0,9.82v5l0,.44-1.27-.45q0-7.42,0-14.86V24.9c-.2-.83-.86-.67-1.44-.67H79.47C78.72,24.23,78,24.18,77.2,24.15Z"/><path class="cls-5" d="M68.23,19.36l.49-.12c1.54,0,3.12-.45,4.59.38l-.93,1.18-1.29,1.49,1.4-2.74c-1,0-2-.06-3,0-.25,0-.6.61-.62.95a32.62,32.62,0,0,0,0,3.7c0,.47.14,1.17.44,1.32A1.26,1.26,0,0,0,71,25.08l.21.55L71,27.3c-1.69-.67-2.16-.38-2.17,1.36a29.23,29.23,0,0,1,0,3c-.15,1.22.29,1.68,1.47,1.5-.16.2-.32.58-.49.58-1.2,0-2.41-.1-3.61-.16,0-.13,0-.26,0-.39h1c1-.61.82-1.41.39-2.27V27.65l-.75-.77a.1.1,0,0,1-.15-.06,3.56,3.56,0,0,0,.75-.48c.15-.16.15-.46.21-.69l-.05-.57-.22-5.37,0-.3Zm2,7c-.15-.1-.23-.19-.32-.2a.9.9,0,0,0-.31.13,1.14,1.14,0,0,0,.3.25C70,26.56,70.1,26.45,70.25,26.36Z"/><path class="cls-26" d="M71.09,22.29l1.29-1.49c.11.44.34,1.05.81.5.64-.73,1.32-.47,2-.47,2.15,0,4.31,0,6.46,0a1.72,1.72,0,0,1,.92.13,1,1,0,0,1,.3.81c0,.2-.4.39-.65.47a8.29,8.29,0,0,1-1.22.27H73.85L73,22.31l-.36.11c1,1,.75,1.71-.26,2.09a3.23,3.23,0,0,1-1.26-.08Z"/><path class="cls-26" d="M173.07,43.32l0-.44v-5c0-3.27,0-6.55,0-9.82.48-.82.93-1.66,1.46-2.44a3.33,3.33,0,0,1,.91-.68l.06.7a14.75,14.75,0,0,0-1.4,3.71c-.23,2.32-.07,4.69-.07,7,0,.27-.07.67.08.8,1.53,1.35.63,3.12.89,4.69a11.68,11.68,0,0,0,.47,1.49Z"/><path class="cls-26" d="M175.06,21.79c.17.23.34.47.5.71-.2.09-.53.13-.6.29-.36.81-.66,1.64-1,2.46-.06.15-.12.3-.22.57C172.93,24,173.46,22.59,175.06,21.79Z"/><path class="cls-11" d="M87.51,21.8l1.21.72C88.21,22.46,87.47,22.79,87.51,21.8Z"/><path class="cls-11" d="M172.15,23h-.72v-.72h.72Z"/><path class="cls-11" d="M170,22.28h0Z"/><path class="cls-17" d="M192,75.5l.48.54-.21.15Z"/><path class="cls-23" d="M181.18,67l-2.72,2.18a5.41,5.41,0,0,1-1.13.5,7,7,0,0,1-1.38.06l0-22.51,1-.3a13.92,13.92,0,0,1,2.44,1.65c1.12,1.13,2.07,2.44,3.09,3.67l-1.18-.12,1.47,3,.39-.14c-.07-.41-.12-.81-.22-1.21s-.28-1-.42-1.43a9.93,9.93,0,0,1,.93,1.6,11.62,11.62,0,0,1,.58,6.87,3.08,3.08,0,0,0,0,.8c-.05.24-.1.48-.16.72l-.4,1-.38.86-.33.58-.15.36-1.16,1.54Z"/><path class="cls-11" d="M175.93,47.2q0,11.25,0,22.51l-.91,1-.27.06-2.69-.2.06-.28.77-.28c.71-.16,1-.52.71-1.29a6.43,6.43,0,0,1-.26-1.86c0-4.32,0-8.65,0-13a3.37,3.37,0,0,0-.48-1.16l-.18-.66.24-1a4.24,4.24,0,0,0,.71-1.07c.12-.34-.05-.77,0-1.16.09-1.59-.25-2.16-1.67-2.74l1.4,0c.43.21.94.68,1.27.57C175.34,46.36,175.63,46.69,175.93,47.2Z"/><path class="cls-2" d="M171.93,46.05c1.42.58,1.76,1.15,1.67,2.74,0,.39.14.82,0,1.16a4.24,4.24,0,0,1-.71,1.07l-1.15-.46c.13-.15.25-.31.39-.45.33-.32.92-.62.94-1a1.48,1.48,0,0,0-.74-1.16c-.83-.3-.82-.86-.78-1.52l.16-.46Z"/><path class="cls-5" d="M171.73,46l-.16.46-2.31-.27-.72-.41c0-.62-.33-.65-.75-.28l-.39,0,.07-.86,1.82.39,1.17,0Z"/><path class="cls-14" d="M183.14,64.11l.38-.86c.13-.31.27-.63.4-1s.11-.48.16-.72l.56.24c-.09.47-.17,1-.26,1.43l-.23.48v.48l-.72,1.19-1.19,1h0l.44-1.31.15-.36Z"/><path class="cls-8" d="M175.93,47.2c-.3-.51-.59-.84-1.33-.6-.33.11-.84-.36-1.27-.57h4.14l.36.55-.85.32Z"/><path class="cls-18" d="M182.55,52.31c.14.47.3.95.42,1.43s.15.8.22,1.21l-.39.14-1.47-3,1.18.12Z"/><path class="cls-13" d="M166,72l-1.14-.47a3.51,3.51,0,0,0-.58-.86,17.15,17.15,0,0,1-2.14-1.58,16.85,16.85,0,0,1-4-6.12l-.21-.45c-.09-.56-.17-1.12-.26-1.68.47-1.23.19-2-.82-2.37l-.05-.49c.18-.06.5-.11.51-.19.12-1.46.21-2.93.3-4.39l.08-.71.42-.25c1.29,0,1.29-1.28,1.78-2,.61-.84,2.11-1.31,1.6-2.81l.78-.75c.58-.23,1.18-.45,1.75-.71s.88-.48,1.32-.72l.75,1.23c-.68.31-1.36.6-2,.94-1.7.9-2.64,2.54-3.81,4a3.61,3.61,0,0,0-.94,1.7c-.22,2.18-1.29,4.22-.67,6.56.26,1-.14,2.17,1,2.89.14.09.08.45.16.67.43,1.12.59,2.52,1.38,3.28a15.84,15.84,0,0,0,5.41,3.85,7.66,7.66,0,0,0,5.21.53l1,.27c0,.55,0,1-.77,1a3.71,3.71,0,0,0-1.16.45c-1.08-.32-2.15-.69-3.25-.92A6.27,6.27,0,0,0,166,72Z"/><path class="cls-8" d="M166,72a6.27,6.27,0,0,1,1.66-.09c1.1.23,2.17.6,3.25.92v.42A7.41,7.41,0,0,1,166,72Z"/><path class="cls-8" d="M175,70.66l.91-1a7,7,0,0,0,1.38-.06,5.41,5.41,0,0,0,1.13-.5c0,.18.13.45,0,.54A3.31,3.31,0,0,1,175,70.66Z"/><path class="cls-8" d="M172.88,71.39l-1-.27c0-.21,0-.42,0-.63a.47.47,0,0,1,.17,0l2.7.2Z"/><path class="cls-14" d="M181.18,67l.32-.38.72-.23h0v.48C181.93,67.33,181.6,67.54,181.18,67Z"/><path class="cls-14" d="M184.14,73.79l-.25-.06.25-.22Z"/><path class="cls-17" d="M186.37,63l-.45.09.45-.75Z"/><path class="cls-9" d="M184.15,63.73l.23-.48Z"/><path class="cls-25" d="M171.78,28q0,7.43,0,14.86a6.49,6.49,0,0,1-1.21.71c-.74.23-1.52.34-2.29.5l-1.9.71a5.11,5.11,0,0,0-1.05.16c-.63.23-1.22.53-1.82.8l.28-.61,1.15-.56,1-.61.93-.14.35-.2,1.09-.26c3.53-.39,2.88.13,2.92-3,0,0,0-.08,0-.12q0-7.43,0-14.85c0-1-.77-.74-1.33-.74q-11.65,0-23.32,0L124,24.69H112.69l-37.32.21-.08-.46h0l.47-.26,1.44,0c.76,0,1.52.08,2.27.08h90.86c.58,0,1.24-.16,1.44.67C171.78,25.94,171.78,27,171.78,28Z"/><path class="cls-9" d="M166.4,44.79l1.9-.71,1,1-1.82-.39c0,.3,0,.58-.07.86l-1.15.2.87.92-.94.12-.75-1.23Z"/><path class="cls-17" d="M194.46,78.1l.69.49Z"/><path class="cls-17" d="M184.93,65.69c-.1.15-.19.3-.28.45C184.74,66,184.83,65.84,184.93,65.69Z"/><path class="cls-12" d="M71.12,24.43a3.23,3.23,0,0,0,1.26.08c1-.38,1.3-1.07.26-2.09l.36-.11.85.23c.09.55.17,1.11.25,1.66.07.72.15,1.44.22,2.15,0,.16,0,.32,0,.48q0,21.66,0,43.3c0,2.7.1,5.4.13,8.1,0,.12-.24.24-.36.36a3.84,3.84,0,0,1-.53-2.74c.12-1.8,0-3.61,0-5.43V47.68c0-.84.25-1.79-.94-2.16-.07,0,0-1.22.24-1.33.75-.33.7-.86.7-1.46V36.65c-.33-.76-.66-1.53-1-2.3-.15-.34-.46-.73-.39-1,.3-1.3.74-2.57,1.06-3.86a1,1,0,0,0-.23-.84c-.9-.66-.84-1.12.16-1.56.15-.06.23-.29.57-.75l-2.55-.68L71,25.08C71.07,24.87,71.09,24.65,71.12,24.43Z"/><path class="cls-26" d="M71.25,25.63l2.55.68c-.34.46-.42.69-.57.75-1,.44-1.06.9-.16,1.56a1,1,0,0,1,.23.84c-.32,1.29-.76,2.56-1.06,3.86-.07.3.24.69.39,1,.32.77.65,1.54,1,2.3h-.72a4.38,4.38,0,0,0-.53-.95,12.61,12.61,0,0,0-1.2-1l-.33-.3c0-.14-.09-.27-.13-.41,0-.33,0-.65,0-1h0l.27-.44V27.3Z"/><path class="cls-23" d="M67.56,27.65v3.24l-.39,2.27h-1l-2.61-1.8h0l-.74-.71L61.74,29l-.36-.54-.4-.7c0-.13,0-.27,0-.4l.48-.51,1.38,0h.25l3.59,0a.1.1,0,0,0,.15.06Z"/><path class="cls-20" d="M71,27.3c0,1.77,0,3.54,0,5.31l-.27.44h0l-.46.06c-1.18.18-1.62-.28-1.47-1.5a29.23,29.23,0,0,0,0-3C68.83,26.92,69.3,26.63,71,27.3Z"/><path class="cls-7" d="M63.57,31.35l2.61,1.8c0,.13,0,.26,0,.39C65.2,32.92,63.9,32.71,63.57,31.35Z"/><path class="cls-5" d="M61,27.39c0,.13,0,.27,0,.4L60,28.2l-.39-.55-.18-.81,0,0,1.69-.21a.77.77,0,0,0,0,.15Z"/><path class="cls-7" d="M62.83,30.65l.74.71Z"/><path class="cls-7" d="M70.7,34c0,.14.09.27.13.41H70Z"/><path class="cls-7" d="M61.38,28.49l.36.54Z"/><path class="cls-7" d="M63,12.09l1-.1-1,.28A.15.15,0,0,1,63,12.09Z"/><path class="cls-7" d="M67.38,19.41l0,.3H66.16c-1.47,0-2.95-.06-4.42-.05-2.64,0-2.57-.52-2.21,2.62l.36,1.46.14.93.25.58,0,0a4.56,4.56,0,0,0,1.14.36c1.51.08,3,.1,4.53.14a5.8,5.8,0,0,1-1.19.31c-1.22,0-2.45,0-3.67,0-1.48.18-1.54-1.13-2-2.34L58.86,25a16.15,16.15,0,0,1-.76-2.67c-.3-2.72-.25-2.72-3-2.73h-1.2l0-.36c1.54.12,3.13-.45,4.65.34.23.12.7-.36,1.07-.37,2.5,0,5,0,7.51.06C67.25,19.28,67.31,19.37,67.38,19.41Zm-8.7.79-.36.08.27,2.86.41,0C58.91,22.13,59.32,21.11,58.68,20.2Z"/><path class="cls-13" d="M58.86,25l.26-1.27c.46,1.21.52,2.52,2,2.34,0,.17,0,.34.05.51l-1.69.21L58,26.59c0-.17,0-.34,0-.51.57.05,1,0,.85-.77C58.87,25.21,58.87,25.12,58.86,25Z"/><path class="cls-8" d="M68.7,16.52a3.51,3.51,0,0,1-.37.66,5.42,5.42,0,0,1-.7.54c0-1.68.07-3.36.11-5h.6c.12.17.24.33.37.49v3.34Z"/><path class="cls-13" d="M68.34,12.69h-.6c-.07-.19-.14-.37-.22-.56L68.59,11h4l.6.73a33,33,0,0,0-3.61,0C69.17,11.84,68.77,12.38,68.34,12.69Z"/><path class="cls-9" d="M68.59,11l-1.07,1.12-1.83-.2-.24-.67c1.2,0,2.21-.17,2.3-1.66l.86,0,.21.48-.09.5Z"/><path class="cls-3" d="M65.45,11.26l.24.67-1,0-.25-.22c0-.23,0-.46,0-.69Z"/><path class="cls-7" d="M65.7,18.47h0Z"/><path class="cls-7" d="M61.86,18.45h0Z"/><path class="cls-7" d="M64.49,11.74l.25.22h-.28A.76.76,0,0,1,64.49,11.74Z"/><path class="cls-7" d="M62.59,18.47h0Z"/><path class="cls-8" d="M77.72,13.41H76.55c0-.15,0-.31,0-.46l.16-.73h-.43L76,12l-.59-1.45-.61-1.19c0-.14-.06-.29-.08-.44l1.34.17.48.94c.33.65.7,1.09,1.57.91a4.32,4.32,0,0,1,1.47.21c.1.72-.13.92-.88.72-.49-.13-1.26-.4-1.26.63Z"/><path class="cls-7" d="M75.42,10.52c.2.48.4,1,.59,1.45l-.5.28-.69-.08-.18-.37-.32.37-3.82.07c-.82-.12-1.68-.29-1.79.94-.13-.16-.25-.32-.37-.49.43-.31.83-.85,1.29-.9a33,33,0,0,1,3.61,0l-.6-.73,1-.28,1,0Z"/><path class="cls-20" d="M73.61,10.74l-1,.28h-.71l-1.24-.19-2-.26.09-.5c1.36.1,2.72.18,4.07.31A2.35,2.35,0,0,1,73.61,10.74Z"/><path class="cls-7" d="M76.07,9.06l-1.34-.17-.11,0-.11,0,.55-.73Z"/><path class="cls-20" d="M75.42,10.52l-.85.24.24-1.43Z"/><path class="cls-20" d="M68.63,8.31c0-.13,0-.26,0-.39l.26-.26c.65.47.59.95,0,1.46C68.82,8.85,68.73,8.58,68.63,8.31Z"/><path class="cls-7" d="M68.88,7.66l-.26.26c0-.17,0-.35,0-.52Z"/><path class="cls-7" d="M68.63,8.31c.1.27.19.54.28.81l-.23.13C68.67,8.94,68.65,8.63,68.63,8.31Z"/><path class="cls-5" d="M58,26.59l1.46.22,0,0-.58.06L58,26.8A.75.75,0,0,1,58,26.59Z"/><path class="cls-7" d="M58.88,26.9l.58-.06.18.81Z"/><path class="cls-20" d="M68.71,13.18c.11-1.23,1-1.06,1.79-.94l-1.1.67V17.8L76,13.3l-.5-1.05L76,12l.22.25.27.72c0,.15,0,.31,0,.46.14,1.18.26,2.36.43,3.53s-.22,1.39-1.31,1.32c-1.68-.1-3.36,0-5,0s-1.71,0-1.93-1.71V13.18Z"/><path class="cls-23" d="M77.72,13.41l-.27-.94c1-.08,2-.21,2.93-.2a1.24,1.24,0,0,1,.86.69c.46,1.38.86,2.79,1.22,4.2.17.71-.08,1.19-.93,1.05h-.12c-.91,0-2,.22-2.65-.23s-.25-1.61-.42-2.44S77.93,14.12,77.72,13.41Z"/><path class="cls-16" d="M158.23,63a16.85,16.85,0,0,0,4,6.12,17.15,17.15,0,0,0,2.14,1.58,3.51,3.51,0,0,1,.58.86,12.2,12.2,0,0,1-5.68-5.08,21.71,21.71,0,0,1-1.36-2.88C158,63.38,158.11,63.18,158.23,63Z"/><path class="cls-16" d="M157.08,62.05c0-.24-.05-.47-.08-.71l.16-.24.17-.25h.43c.09.56.17,1.12.26,1.68l-.53,0Z"/><path class="cls-3" d="M157.49,62.57l.53,0,.21.45c-.12.2-.24.4-.37.6C157.74,63.25,157.61,62.91,157.49,62.57Z"/><path class="cls-24" d="M171.8,74.51c0,.15,0,.3,0,.46C171.81,74.81,171.8,74.66,171.8,74.51Z"/><path class="cls-24" d="M171.82,79.58a.1.1,0,0,1,0,.17A.1.1,0,0,1,171.82,79.58Z"/><path class="cls-24" d="M171.79,76.92a.38.38,0,0,1,.05.15s0,0-.05.06A.17.17,0,0,1,171.79,76.92Z"/><path class="cls-24" d="M171.79,77.64a.39.39,0,0,1,.05.14s0,0-.05.06A.15.15,0,0,1,171.79,77.64Z"/><path class="cls-2" d="M75.37,24.9l-.16.73c-.61-.44-.67-.84.08-1.19Z"/><path class="cls-2" d="M75.22,78.08v1C74.61,78.75,74.6,78.42,75.22,78.08Z"/><path class="cls-19" d="M75.39,72.34l.53.19-.53.31Z"/><path class="cls-10" d="M74.33,26.83c0-.16,0-.32,0-.48C74.32,26.51,74.33,26.67,74.33,26.83Z"/><path class="cls-2" d="M75.76,24.18l-.47.26Z"/><path class="cls-11" d="M73.83,79.53l.24-.47Z"/><path class="cls-12" d="M173.1,37.85v0Z"/><path class="cls-2" d="M171.78,28c0-1,0-2.07,0-3.11C171.78,25.94,171.78,27,171.78,28Z"/><path class="cls-23" d="M66.16,19.7h1.19c.07,1.79.14,3.58.22,5.37l-.63.71-1,0c-1.51,0-3-.06-4.53-.14a4.56,4.56,0,0,1-1.14-.36c.55-.18,1.11-.07,1.54-.8a10,10,0,0,1,2.33-2.39,25.92,25.92,0,0,1,2.63-1.65Z"/><path class="cls-20" d="M71.12,24.43c0,.22-.05.44-.08.65a1.26,1.26,0,0,1-1.76.48c-.3-.15-.42-.85-.44-1.32a32.62,32.62,0,0,1,0-3.7c0-.34.37-.92.62-.95,1-.1,2,0,3,0l-1.4,2.74Z"/><path class="cls-16" d="M66,25.77l1,0,.68-.14c-.06.23-.06.53-.21.69a3.56,3.56,0,0,1-.75.48l-3.59,0h-.25l-1.38,0-.25-.13a.77.77,0,0,1,0-.15c0-.17,0-.34-.05-.51,1.22,0,2.45,0,3.67,0A5.8,5.8,0,0,0,66,25.77Z"/><path class="cls-7" d="M67.17,33.16l.39-2.27C68,31.75,68.13,32.55,67.17,33.16Z"/><path class="cls-7" d="M67.62,25.65l-.68.14.63-.71C67.58,25.27,67.6,25.46,67.62,25.65Z"/><path class="cls-7" d="M67.56,27.65l-.75-.77Z"/><path class="cls-26" d="M70.25,26.36c-.15.09-.27.2-.33.18a1.14,1.14,0,0,1-.3-.25.9.9,0,0,1,.31-.13C70,26.17,70.1,26.26,70.25,26.36Z"/><path class="cls-9" d="M182.22,66.36l-.72.23,1.16-1.54C182.51,65.49,182.37,65.93,182.22,66.36Z"/><path class="cls-9" d="M183.92,62.3c-.13.32-.27.64-.4,1C183.65,62.93,183.79,62.62,183.92,62.3Z"/><path class="cls-9" d="M183.14,64.11l-.33.58Z"/><path class="cls-10" d="M171.76,50.56l1.15.46-.24,1c0,.22,0,.44,0,.67q.12,8.64.25,17.27l-.77.28-.41-.29,0-.72V68.05c0-5,0-10-.06-15C171.63,52.21,171.72,51.39,171.76,50.56Z"/><path class="cls-12" d="M172.91,70q-.14-8.62-.25-17.27h.19a3.37,3.37,0,0,1,.48,1.16c0,4.32,0,8.65,0,13a6.43,6.43,0,0,0,.26,1.86C173.87,69.44,173.62,69.8,172.91,70Z"/><path class="cls-2" d="M172.85,52.68h-.19c0-.23,0-.45,0-.67Z"/><path class="cls-2" d="M171.73,70l.41.29-.06.28a.57.57,0,0,0-.18,0l-.25-.13Z"/><path class="cls-3" d="M169.26,46.21A13.71,13.71,0,0,0,163,49.67a12.52,12.52,0,0,0,.91,18.4,14.41,14.41,0,0,0,5.42,2.64c.78.21,1.65.45,2.32-.35l.25.13c0,.21,0,.42,0,.63a7.66,7.66,0,0,1-5.21-.53,15.84,15.84,0,0,1-5.41-3.85c-.79-.76-.95-2.16-1.38-3.28-.08-.22,0-.58-.16-.67-1.15-.72-.75-1.88-1-2.89-.62-2.34.45-4.38.67-6.56a3.61,3.61,0,0,1,.94-1.7c1.17-1.42,2.11-3.06,3.81-4,.66-.34,1.34-.63,2-.94l.94-.12-.87-.92,1.15-.2.39,0,.75.28Z"/><path class="cls-9" d="M168.54,45.8l-.75-.28C168.21,45.15,168.49,45.18,168.54,45.8Z"/><path class="cls-25" d="M157.08,53.68l.39,0c-.2,1.45-.39,2.9-.58,4.35,0,.16,0,.32.05.49s0,.6,0,.9l.23,1.72-.16.24c-.26-.4-.52-.79-.77-1.19A23.51,23.51,0,0,1,157.08,53.68Z"/><path class="cls-14" d="M161.58,47.69c.51,1.5-1,2-1.6,2.81-.49.67-.49,2-1.78,2l.54-1.6.11-.27a7.34,7.34,0,0,0,.6-.51C160.17,49.28,160.87,48.49,161.58,47.69Z"/><path class="cls-25" d="M161.58,47.69c-.71.8-1.41,1.59-2.13,2.38a7.34,7.34,0,0,1-.6.51c0-.16,0-.31,0-.47l.45-.72,1.2-1.58,2.05-1.35c-.06.16-.12.32-.17.48Z"/><path class="cls-3" d="M156.89,58c.19-1.45.38-2.9.58-4.35l.23-.23c-.09,1.46-.18,2.93-.3,4.39C157.39,57.88,157.07,57.93,156.89,58Z"/><path class="cls-8" d="M162.36,46.94c0-.16.11-.32.17-.48h0l.79-.58.19-.12c.6-.27,1.19-.57,1.82-.8a5.11,5.11,0,0,1,1.05-.16l-1,.72c-.44.24-.86.51-1.32.72S162.94,46.71,162.36,46.94Z"/><path class="cls-14" d="M156.93,59.38c0-.3,0-.6,0-.9,1,.34,1.29,1.14.82,2.37h-.43C157.2,60.36,157.07,59.87,156.93,59.38Z"/><path class="cls-25" d="M158.74,50.85l-.54,1.6-.42.25c.18-.62.36-1.24.55-1.86Z"/><path class="cls-5" d="M70.71,33.05l.27-.44Z"/><path class="cls-7" d="M61.19,26.75l.25.13-.48.51C61,27.18,61.11,27,61.19,26.75Z"/><path class="cls-5" d="M62.82,26.85h0Z"/><path class="cls-24" d="M58.68,20.2c.64.91.23,1.93.32,2.9l-.41,0-.27-2.86Z"/><path class="cls-23" d="M59.53,22.27l.36,1.46Z"/><path class="cls-23" d="M60,24.66c.09.19.17.39.25.58Z"/><path class="cls-7" d="M68.7,13.63v0Z"/><path class="cls-7" d="M68.73,10.56l2,.26,1.24.19H68.59C68.63,10.86,68.68,10.71,68.73,10.56Z"/><path class="cls-7" d="M76.5,12.94l-.27-.72h.43Z"/><path class="cls-20" d="M74.82,12.17h-.5l.32-.37Z"/><path class="cls-17" d="M129.93,45.53l.93,1.67c.22.81.44,1.62.65,2.44l.13,1.39c.05,1.6.1,3.19.16,4.79l-.06.45a37.1,37.1,0,0,1-1.45,5.48c-1.71,3.94-6.91,5.29-10.58,3-2-1.24-3-3.12-3.77-5.18,0-.15-.07-.3-.1-.45s-.12-.34-.17-.52c-.08-2.62-.15-5.24-.23-7.86a.18.18,0,0,0,0-.2c.06-.4.11-.8.17-1.21l.42-1.71c0-.24.09-.49.13-.74v-.09l.41-.59a.84.84,0,0,0,.08-.2s0-.06,0-.1l.48-.63,2.09-2.07.63-.5,1-.29.51-.2a10.11,10.11,0,0,1,7,1.34c.16.15.32.3.49.44Zm-13.87,12.2.43.74c0,3.05,2.52,6.06,5.33,6.47a3.69,3.69,0,0,1,.94,0,4.81,4.81,0,0,0,4.86-1.26c.43-.4.78-.91,1.24-1.26a4.2,4.2,0,0,0,1.78-3.26l.28-.67v-.29h0c0-2.17.08-4.35,0-6.52a32.92,32.92,0,0,0-.68-4l-.24-.24a2.47,2.47,0,0,0-1.43-2.4h0l-.25-.22-.66-.29c-.92-1.63-2.53-1.75-4.13-1.89-1.38.36-3.21-.31-3.86,1.71,0,.1-.3.11-.41.21-1,1-2.35,1.7-2.47,3.32l-.47,2.22v.41a4,4,0,0,0-.25,1C116,53.57,116.05,55.65,116.06,57.73Z"/><path class="cls-17" d="M96.26,55.86c.1-.15.19-.3.28-.45l1.75-2.28.25,0,0,.69-.46.71-.49,1a.37.37,0,0,0,0,.18h-.17c-.9.13-.94.82-1,1.51a.76.76,0,0,0,0,.15c-.13.37-.47.84-.35,1.12a2.23,2.23,0,0,0,2.26,1.57c2.11,0,4.22,0,6.32,0a14.23,14.23,0,0,1,1.84.23l.7,1.42c0,.22,0,.44,0,.66l-.42,1,0,.46c.2.45,0,1.28,1,1l.63,0c.73.58,1.28.2,1.49-1v-.68l.16-1.93.29-1a.6.6,0,0,0,.06-.19l.46,0c1.7.06,2.41-.4,2.58-1.67l.11-.56c.68.9.19,1.63-.34,2.36l-.48.27-.92.12c-1-.25-1.2.34-1.28,1.18-.11,1.17-.32,2.33-.49,3.5l.05,0,0,0-.58.49-.3,0-.76.16h-.72a3.19,3.19,0,0,1-1.41-3.33,2,2,0,0,0-.12-.67c0-.23,0-.46,0-.68-.39-1.19-1.25-.72-2-.58h-.88l-5.56-.13-.44-.11-.51-.18-.87-.71-.25-.48c0-.74,0-1.48,0-2.21l.21-.29Z"/><path class="cls-17" d="M106.81,42.2l.61-.21,1.89.25.25.19,1,1.89.06,2.4,0,.71c0,2.31-.09,4.61-.07,6.91,0,2.69-.35,2.3,2.43,2.57l.24.59h-.68L110.29,57l-.47-.49a1.85,1.85,0,0,0,0-.23l.2-2.85v-1l-.18-5V44.8l-.25-1.68-.7-.27c-.68-1-1.53-.15-2.3-.19Z"/><path class="cls-9" d="M112.46,57.49h.68l.33.39c0,.19-.07.38-.11.56l-.91.49Z"/><path class="cls-17" d="M133.62,56.56l.26-.46.74-1,.59-.89.42-.53q2.24-3,4.46-6.11l.54-.63,0-.07,1.16-1.36.67-.5.06,0a.3.3,0,0,0,0,.21l-.82,1.88-1.39,1.68-.25.71-1,1-.72.66-.48.75h0l-.75,1-2.37,3.9c-.71,1.18-.62,1.75.43,2.84a4.92,4.92,0,0,0,1.37.46c2.31,0,4.62,0,6.93,0,1.12,0,1.39.4,1.21,1.47a13.22,13.22,0,0,0-.11,1.66c0,.76-.13,1.61.89,1.82,1.81.37,2.69-.52,2-2.25-.57-1.4.09-2,1-2.67a3,3,0,0,0,2.64-1l.32,0,.1.47c-.72.32-1.45.63-2.16,1a3.84,3.84,0,0,0-.54.35l0,0-.36.85c0,.7,0,1.41-.07,2.11l-.15.53-.15.47a2.27,2.27,0,0,1-2.66.81A2.38,2.38,0,0,1,144,63.19c0-2.62,0-2.61-2.58-2.6-1.71,0-3.42,0-5.13,0C133.64,60.56,132.59,58.94,133.62,56.56Z"/><path class="cls-15" d="M151.05,59.17a3,3,0,0,1-2.64,1L150,59.08l1.29-.85.26.48-.23.23Z"/><path class="cls-22" d="M151.05,59.17l.29-.23a.13.13,0,0,1,0,.21Z"/><path class="cls-3" d="M156.93,59.38c.14.49.27,1,.4,1.47l-.17.25C157.08,60.53,157,60,156.93,59.38Z"/><path class="cls-16" d="M112.46,57.49v1.45c-.14.09-.37.29-.42.25a10.64,10.64,0,0,1-.93-.87c-.06.53-.06.77-.11,1s-.14.54-.21.81l-.46,0-.58-.22-.08.28.6.13c-.1.33-.19.66-.29,1l-.9.71-1.92-.26c-.23-.47-.47-.94-.7-1.42l.67-.14c-1.15-1.26-2.48-.8-3.81-.72-1.74.1-3.5,0-5.25-.1l.63-2.82-1.15-.8a.43.43,0,0,1,0-.19l.49-1,.46-.71a5.79,5.79,0,0,0,3.16-4.26l2.14-2.68c.1.67.48.95,1,.53.17-.12.11-.68,0-1s-.34-.47-.52-.71a.46.46,0,0,0-.06-.23l.18-.23.82-.7c.33-.09.92-.11,1-.27.32-1.3,1.22-1.42,2.3-1.3.1,0,.22-.09.32-.15l.7.27c-.17.6-.61,1.23.25,1.68v1.44c-.76.4-.76.8,0,1.19l.18,5c-.62.34-.61.68,0,1-.07.95-.14,1.9-.2,2.85-1.25.1-2,1-1.58,1.9L110.05,57h.24ZM100,56.3l.87.72c.25.24.48.66.75.68a20.32,20.32,0,0,0,3.12,0c.28,0,.52-.45.78-.7l.51-.13.69-.31a4.06,4.06,0,0,0,1,0c.25-.08.57-.36.59-.59A1.09,1.09,0,0,0,108,55a8.18,8.18,0,0,0-1.59-.61l0-.73c.64-.06,1.61.1,1.85-.24s.07-1.31.06-2c0-.12,0-.23,0-.35-.11-1.11-.23-2.23-.35-3.48l-1.55.8-1.48.94a2.1,2.1,0,0,0-1.61,2.52l-1,1.55-.2.27-.76.78a10.58,10.58,0,0,0-1.77.92C99,55.83,99.31,56.18,100,56.3Z"/><path class="cls-22" d="M101.67,49.6a5.79,5.79,0,0,1-3.16,4.26l0-.69.34-.44.6-.79a.19.19,0,0,1,.14-.18l.36-.51.33-.45.61-.78a.15.15,0,0,1,.11-.17Z"/><path class="cls-17" d="M101.67,49.6l-.64.25c0-.15,0-.3,0-.45l.51-.71.88-1.11.58-.81,1.28-1.27a.46.46,0,0,1,.06.23l-.54,1.19Z"/><path class="cls-22" d="M108.87,42.85c-.1.06-.22.16-.32.15-1.08-.12-2,0-2.3,1.3,0,.16-.63.18-1,.27l-.06-.31a.14.14,0,0,1,.11-.17l.85-1,.08-.39.3,0C107.34,42.7,108.19,41.81,108.87,42.85Z"/><path class="cls-17" d="M106.19,43.07l-.85,1Z"/><path class="cls-17" d="M104.59,44.71a3.11,3.11,0,0,0,.23-.28l.41-.17.06.31-.82.7Z"/><path class="cls-17" d="M100.92,50l-.61.78c0-.14,0-.29,0-.44Z"/><path class="cls-2" d="M171.7,69.23v0Z"/><path class="cls-17" d="M147.73,43.3a8.42,8.42,0,0,1,.56,2.09c.06,3.35,0,6.7,0,10,0,.91.28,1.29,1.18,1.4a8.9,8.9,0,0,1,1.77.57l.16.16c0,.14,0,.28-.08.42l-1.21-.52-1.46-.4-.94-.53c-.23-.6-.55-1.18.11-1.77.17-.16.11-.6.09-.91-.05-.94-.13-1.88-.2-2.82,0-.72,0-1.44,0-2.15v-.73l0-.95C147.7,45.9,147.72,44.6,147.73,43.3Z"/><path class="cls-17" d="M146.45,42c.06.1.12.19.17.29a3.87,3.87,0,0,0-3.34,2c-.12.22-.38.36-.58.54l-.07-.08.54-1.11.58-.74.39-.38,1-.54Z"/><path class="cls-25" d="M163,45.75l.3.12-.79.58Z"/><path class="cls-17" d="M142.43,45.05l.2-.28.07.08-.21.24Z"/><path class="cls-16" d="M130.64,59.17a4.2,4.2,0,0,1-1.78,3.26c-.46.35-.81.86-1.24,1.26A4.81,4.81,0,0,1,122.76,65a3.76,3.76,0,0,0-1,0c-.08-.24-.16-.49-.25-.73a3.75,3.75,0,0,1,1.07-.18c.81.11,1.6.31,2.4.47l.19-.5c-.35-.24-.67-.63-1-.69a13,13,0,0,0-2.57-.09c-.59,0-.82-.14-.75-.72l1.64-.15h2.2l1.56.65a5.15,5.15,0,0,1,.15-1.71c1.57-3,1.08-6.26,1.1-9.44,0-.11-.19-.22-.3-.33l0-.77c.16-1.35,0-2.74.62-4l.15-.89h.3l.53,1.36.34-.06a4.9,4.9,0,0,0-.08-.94,10.67,10.67,0,0,0-.5-1.16,2.47,2.47,0,0,1,1.43,2.4c-1.09.31-1,1.13-.92,2,.12,2.55.16,5.11.22,7.66,0,.9,0,1.8.05,2.81Z"/><path class="cls-16" d="M116.74,47.87c.12-1.62,1.44-2.37,2.47-3.32.11-.1.37-.11.41-.21.65-2,2.48-1.35,3.86-1.71v.25l-.9,1h.9c0,.31,0,.62,0,.94l-.71,0-.53.23a3,3,0,0,0-2.61,2.4c-.8,0-1.42.14-1.41,1.13a15.55,15.55,0,0,1-.09,2.9c-.15.8.07,1,.79,1,0,.57,0,1.13,0,1.7-.25.21-.64.39-.71.65a22,22,0,0,0-.39,2.32l-1.29-.1-.27-6.53c0-.14,0-.27,0-.41C117.53,49.58,117.05,48.71,116.74,47.87Z"/><path class="cls-14" d="M130.64,59.17l-1.33.74c0-1,0-1.91-.05-2.81-.06-2.55-.1-5.11-.22-7.66,0-.88-.17-1.7.92-2l.24.24c0,.47,0,.95,0,1.42.07,2.38.11,4.77.23,7.15,0,.66-.52,1.51.45,2h0v.29Z"/><path class="cls-14" d="M123.48,43.85h-.9l.9-1c.87.43,1.73.88,2.62,1.26a9.27,9.27,0,0,0,1.51.38l.66.29.25.22h0a10.67,10.67,0,0,1,.5,1.16,4.9,4.9,0,0,1,.08.94l-.34.06-.53-1.36h-.3l-.15.89-1-.24C126.63,45.51,124.61,43.93,123.48,43.85Z"/><path class="cls-15" d="M121.56,64.21c.09.24.17.49.25.73-2.8-.41-5.28-3.42-5.32-6.47l.52.71c-.17,1,.67,1.21,1.19,1.68l.48.47A2.93,2.93,0,0,0,121.56,64.21Z"/><path class="cls-15" d="M130.92,58.22c-1-.47-.41-1.32-.45-2-.12-2.38-.16-4.77-.23-7.15,0-.47,0-1,0-1.42a32.92,32.92,0,0,1,.68,4C131,53.87,130.92,56.05,130.92,58.22Z"/><path class="cls-15" d="M116.28,50.5l.27,6.53c0,.23,0,.47,0,.71h-.47c0-2.08,0-4.16,0-6.24A4,4,0,0,1,116.28,50.5Z"/><path class="cls-24" d="M127.61,44.52a9.27,9.27,0,0,1-1.51-.38c-.89-.38-1.75-.83-2.62-1.26v-.25C125.08,42.77,126.69,42.89,127.61,44.52Z"/><path class="cls-16" d="M116.06,57.73h.47a2.36,2.36,0,0,1,.76.26,8.42,8.42,0,0,1,.88.91l-1.16.27-.52-.71Z"/><path class="cls-15" d="M116.74,47.87c.31.84.79,1.71-.47,2.22C116.43,49.35,116.58,48.61,116.74,47.87Z"/><path class="cls-15" d="M130.92,58.5v0Z"/><path class="cls-16" d="M128.52,45l-.25-.22Z"/><path class="cls-15" d="M98.06,59.41c1.75.05,3.51.2,5.25.1,1.33-.08,2.66-.54,3.81.72l-.67.14a14.23,14.23,0,0,0-1.84-.23c-2.1,0-4.21,0-6.32,0A2.23,2.23,0,0,1,96,58.58c-.12-.28.22-.75.35-1.12C97,58,96.85,59.32,98.06,59.41Z"/><path class="cls-14" d="M98.06,59.41c-1.21-.09-1-1.38-1.68-1.95a.76.76,0,0,1,0-.15l1-1.51h.17l1.15.8Z"/><path class="cls-24" d="M107.15,61.79l1.92.26.9-.71c0,.64-.11,1.29-.16,1.93l-.48-.26c-.42-.34-.78-.44-1,.24L108,64l-.85-1.2-.05-.31Z"/><path class="cls-14" d="M107.18,62.76,108,64l.35-.71,1-.24.48.26c0,.23,0,.46,0,.68l-1.49,1-.63,0-1-1c0-.15,0-.31,0-.46C106.86,63.25,107,63,107.18,62.76Z"/><path class="cls-15" d="M110.78,60.12c.07-.27.16-.54.21-.81s.05-.46.11-1a10.64,10.64,0,0,0,.93.87s.28-.16.42-.25l.91-.49C113.19,59.72,112.48,60.18,110.78,60.12Z"/><path class="cls-16" d="M108.31,65l1.49-1C109.59,65.18,109,65.56,108.31,65Z"/><path class="cls-15" d="M97.37,55.8l-1,1.51C96.43,56.62,96.47,55.93,97.37,55.8Z"/><path class="cls-16" d="M106.73,64l1,1C106.71,65.24,106.93,64.41,106.73,64Z"/><path class="cls-15" d="M98.05,54.57l-.49,1Z"/><path class="cls-16" d="M107.18,62.76c-.16.25-.32.49-.47.74l.42-1C107.15,62.55,107.16,62.66,107.18,62.76Z"/><path class="cls-15" d="M110.26,60.35l-.6-.13.08-.28.58.22A.6.6,0,0,1,110.26,60.35Z"/><path class="cls-14" d="M110.05,57l-1.82,1.18c-.44-.9.33-1.8,1.58-1.9a1.85,1.85,0,0,1,0,.23C109.9,56.69,110,56.86,110.05,57Z"/><path class="cls-22" d="M109.82,44.8c-.86-.45-.42-1.08-.25-1.68Z"/><path class="cls-22" d="M109.82,47.43c-.76-.39-.76-.79,0-1.19Z"/><path class="cls-22" d="M110,53.45c-.62-.33-.63-.67,0-1C110,52.77,110,53.11,110,53.45Z"/><path class="cls-9" d="M110.05,57c-.08-.16-.15-.33-.23-.49l.47.49Z"/><path class="cls-16" d="M150.1,57.46l1.21.52v.25l-1.29.85-1.61,1.09c-.89.68-1.55,1.27-1,2.67.71,1.73-.17,2.62-2,2.25-1-.21-.9-1.06-.89-1.82a7.85,7.85,0,0,0,.71-1.94c.12-1.66,0-1.67-1.61-1.67h-8.5c-1-1.09-1.14-1.66-.43-2.84l2.37-3.9.75-1h0l.48-.75.72-.66c.76.09,1.09-.23,1-1l.25-.71c1.24-.12.71.93,1,1.46-.49.77-1,1.54-1.48,2.3-.28.4-.89.78.08,1.07l-.8.92c-.27,0-.62-.08-.8.06a5.38,5.38,0,0,0-1,1.09,4.93,4.93,0,0,0,.58.54l.73.51L139,57c.56.75.93.75,1.49,0l2.86-.17.83-.72c.46,0,1.17-.24,1.33,0,.62.83,1.4.48,2.15.49l.94.53C148.93,57.91,149.45,57.93,150.1,57.46Z"/><path class="cls-16" d="M147.71,48.88c0,.71,0,1.43,0,2.15L147,52.49l-2,.29a19.87,19.87,0,0,0,0-2.32c0-.31-.4-.58-.62-.86,0-.24,0-.49-.05-.73l.22-.7c-.31-1.43-1.27-.33-1.91-.49a5.57,5.57,0,0,0,.42-.8,2.73,2.73,0,0,0,.07-.7,4.43,4.43,0,0,0-.7.32,10.13,10.13,0,0,0-.79.68c.27-.63.55-1.25.82-1.88a1.41,1.41,0,0,0,1.82-1.17A1.57,1.57,0,0,1,146,42.86a5.73,5.73,0,0,0,1.16-.19c.18.21.35.43.52.64-.23.25-.65.48-.67.75a12.78,12.78,0,0,0,0,2.55c0,.22.43.4.66.59,0,.32,0,.64,0,.95Z"/><path class="cls-15" d="M135.16,59.67h8.5c1.66,0,1.73,0,1.61,1.67a7.85,7.85,0,0,1-.71,1.94,13.22,13.22,0,0,1,.11-1.66c.18-1.07-.09-1.46-1.21-1.47-2.31,0-4.62,0-6.93,0A4.92,4.92,0,0,1,135.16,59.67Z"/><path class="cls-14" d="M141.66,47.18a10.13,10.13,0,0,1,.79-.68,4.43,4.43,0,0,1,.7-.32,2.73,2.73,0,0,1-.07.7,5.57,5.57,0,0,1-.42.8c-.47.88-.95,1.76-1.43,2.64-.25-.53.28-1.58-1-1.46Z"/><path class="cls-22" d="M147.18,42.67a5.73,5.73,0,0,1-1.16.19,1.57,1.57,0,0,0-1.72,1.27,1.41,1.41,0,0,1-1.82,1.17.3.3,0,0,1,0-.21l.21-.24c.2-.18.46-.32.58-.54a3.87,3.87,0,0,1,3.34-2Z"/><path class="cls-24" d="M140,49.57c.12.76-.21,1.08-1,1Z"/><path class="cls-24" d="M137.85,52l-.75,1Z"/><path class="cls-24" d="M138.33,51.22l-.48.75Z"/><path class="cls-17" d="M98.88,52.73c0-.16.05-.33.07-.49l.53-.3Z"/><path class="cls-17" d="M100,51.25l-.36.51Z"/><path class="cls-19" d="M106,56.85l-.51.13-4.74-.06c-.12-.3-.23-.6-.35-.89l1-1.57.76-.78.2-.27,1-1.55,1.7-2.23,1-.31.28,2.66.09,1.68,0,.73c0,.32-.05.64-.07,1Z"/><path class="cls-24" d="M106.46,53.66,106.37,52c0-1.19.06-2.39.1-3.58l1.55-.8c.12,1.25.24,2.37.35,3.48,0,.12,0,.23,0,.35,0,.68.26,1.54-.06,2S107.1,53.6,106.46,53.66Z"/><path class="cls-15" d="M100.74,56.92l4.74.06c-.26.25-.5.67-.78.7a20.32,20.32,0,0,1-3.12,0c-.27,0-.5-.44-.75-.68C100.84,57,100.81,56.92,100.74,56.92Z"/><path class="cls-24" d="M106.36,55.35c0-.32,0-.64.07-1A8.18,8.18,0,0,1,108,55a1.09,1.09,0,0,1,.3.91c0,.23-.34.51-.59.59a4.06,4.06,0,0,1-1,0C106.57,56.14,106.46,55.75,106.36,55.35Z"/><path class="cls-7" d="M106.47,48.4c0,1.19-.07,2.39-.1,3.58-.09-.84-.18-1.69-.28-2.66l-1,.31-.09-.29Z"/><path class="cls-24" d="M105,49.34l.09.29-1.7,2.23A2.1,2.1,0,0,1,105,49.34Z"/><path class="cls-15" d="M101.39,54.46c-.33.52-.67,1-1,1.57l-.43.27c-.65-.12-.92-.47-.34-.92A10.58,10.58,0,0,1,101.39,54.46Z"/><path class="cls-22" d="M103.81,46.92l.54-1.19c.18.24.45.45.52.71s.15.89,0,1C104.29,47.87,103.91,47.59,103.81,46.92Z"/><path class="cls-7" d="M106.36,55.35c.1.4.21.79.32,1.19l-.69.31C106.11,56.35,106.23,55.85,106.36,55.35Z"/><path class="cls-7" d="M100,56.3l.43-.27c.12.29.23.59.35.89.07,0,.1,0,.09.1Z"/><path class="cls-7" d="M102.35,53.41l-.2.27Z"/><path class="cls-22" d="M147.69,47.2c-.23-.19-.64-.37-.66-.59a12.78,12.78,0,0,1,0-2.55c0-.27.44-.5.67-.75h0C147.72,44.6,147.7,45.9,147.69,47.2Z"/><path class="cls-22" d="M144.4,49.6c.22.28.58.55.62.86a19.87,19.87,0,0,1,0,2.32l2-.29L147.7,51c.07.94.15,1.88.2,2.82,0,.31.08.75-.09.91-.66.59-.34,1.17-.11,1.77-.75,0-1.53.34-2.15-.49-.16-.21-.87,0-1.33,0,0-.41,0-.82.07-1.23.81,0,1.62,0,2.42-.05.19,0,.4-.43.46-.69,0-.1-.35-.41-.55-.42-.77,0-1.55,0-2.32,0,0-1.34-.08-2.69-.13-4Z"/><path class="cls-22" d="M150.1,57.46c-.65.47-1.17.45-1.46-.4Z"/><path class="cls-22" d="M147.71,48.88v0Z"/><path class="cls-22" d="M127.17,50.74c-.19-.76-.41-1.51-.56-2.28a3.07,3.07,0,0,0-2.71-2.75,2.92,2.92,0,0,0-3.27,2.49,27.51,27.51,0,0,0-.38,9.62,6.37,6.37,0,0,0,2.25,4.53l-1.64.15-.71-.46c-.33-1-.66-1.91-1-2.87v-1l.43-.3-.43-.44-.23-3.32c0-.57,0-1.13,0-1.7.24-1.67.47-3.35.71-5a3,3,0,0,1,2.61-2.4l.53-.23.71,0,3.35,1.69,1,.24C127.19,48,127.33,49.39,127.17,50.74Z"/><path class="cls-14" d="M120.15,62l.71.46c-.07.58.16.75.75.72a13,13,0,0,1,2.57.09c.37.06.69.45,1,.69l-.19.5c-.8-.16-1.59-.36-2.4-.47a3.75,3.75,0,0,0-1.07.18,2.93,2.93,0,0,1-2.88-2.88C119.63,60.6,119.59,61.94,120.15,62Z"/><path class="cls-22" d="M124.7,62.34c2-1.68,2.26-4.05,2.38-6.44.08-1.46.09-2.92.13-4.39.11.11.3.22.3.33,0,3.18.47,6.42-1.1,9.44a5.15,5.15,0,0,0-.15,1.71Z"/><path class="cls-14" d="M119.17,58.22v1l-1,1.69c-.52-.47-1.36-.72-1.19-1.68l1.16-.27a8.42,8.42,0,0,0-.88-.91,2.36,2.36,0,0,0-.76-.26c0-.24,0-.48,0-.71l1.29.1a22,22,0,0,1,.39-2.32c.07-.26.46-.44.71-.65.08,1.11.16,2.21.23,3.32Z"/><path class="cls-14" d="M119.64,47.44c-.24,1.67-.47,3.35-.71,5-.72,0-.94-.19-.79-1a15.55,15.55,0,0,0,.09-2.9C118.22,47.58,118.84,47.4,119.64,47.44Z"/><path class="cls-15" d="M126.84,46.48l-3.35-1.69c0-.32,0-.63,0-.94C124.61,43.93,126.63,45.51,126.84,46.48Z"/><path class="cls-15" d="M122.78,44.81l-.53.23Z"/><path class="cls-16" d="M118.2,60.86l1-1.69c.32,1,.65,1.91,1,2.87-.56-.1-.52-1.44-1.47-.71Z"/><path class="cls-16" d="M109.33,63l-1,.24C108.55,62.57,108.91,62.67,109.33,63Z"/><path class="cls-21" d="M143.39,56.79l.35-6.58-.36-.15a5.31,5.31,0,0,0-.69.65q-2,2.59-3.86,5.23a3,3,0,0,0-.27.87l-.73-.51,1.2-1.69c.27-.3.54-.61.8-.92l3.54-4.59.8.55c.05,1.34.09,2.69.13,4,0,.38,0,.77,0,1.16s0,.82-.07,1.23Z"/><path class="cls-24" d="M143.37,49.1l-3.54,4.59c-1-.29-.36-.67-.08-1.07.51-.76,1-1.53,1.48-2.3s1-1.76,1.43-2.64c.64.16,1.6-.94,1.91.49l-1,.44Z"/><path class="cls-24" d="M139,54.61l-1.2,1.69a4.93,4.93,0,0,1-.58-.54,5.38,5.38,0,0,1,1-1.09C138.41,54.53,138.76,54.63,139,54.61Z"/><path class="cls-22" d="M139,57h1.49C140,57.71,139.6,57.71,139,57Z"/><path class="cls-22" d="M143.61,48.61l1-.44-.22.7Z"/><path class="cls-4" d="M143.61,48.61l.74.26c0,.24,0,.49.05.73l-.23,0-.8-.55Z"/><path class="cls-14" d="M144.29,54.84c0-.39,0-.78,0-1.16.77,0,1.55,0,2.32,0,.2,0,.57.32.55.42-.06.26-.27.68-.46.69C145.91,54.87,145.1,54.84,144.29,54.84Z"/><path class="cls-16" d="M119.17,58.22v-.74l.43.44Z"/></g></g></svg>