<svg xmlns="http://www.w3.org/2000/svg" viewBox="0 0 478 478"><defs><style>.cls-1{fill:#fff;}.cls-2{fill:#a57e2e;}.cls-3{fill:#1b6333;}.cls-4{fill:#1d6433;}.cls-5{fill:#111a13;}.cls-6{fill:#121a13;}.cls-7{fill:#111a12;}.cls-8{fill:#121b14;}.cls-9{fill:#1e6433;}</style></defs><g id="Layer_2" data-name="Layer 2"><g id="Layer_1-2" data-name="Layer 1"><circle class="cls-1" cx="239" cy="239" r="239"/><g id="Layer_2-2" data-name="Layer 2"><g id="Layer_1-2-2" data-name="Layer 1-2"><path class="cls-2" d="M283.3,282.94c.3-.69.47-1.11.66-1.53a50.77,50.77,0,0,0-12.37-57.55,48.38,48.38,0,0,0-27-12.69c-15.8-2-29.71,2.31-41.58,13a47.66,47.66,0,0,0-9.62,12.17c-.35.63-.67.7-1.33.5A181.62,181.62,0,0,0,74.77,240c-1.71.64-3.4,1.32-5.34,2.07.23-2.16.39-4.09.63-6a167.93,167.93,0,0,1,333.64,2.8c.24,2.26.4,4.54.65,6.8.1.89-.14,1.17-1.09,1.15-5.47-.11-10.94-.32-16.41-.19a175,175,0,0,0-42.66,6.45,176.86,176.86,0,0,0-44.38,19c-5.33,3.21-10.36,6.91-15.53,10.38A8.88,8.88,0,0,1,283.3,282.94ZM164.58,205.12a4.47,4.47,0,0,0,1.66,3.73c1.84,1.54,3.7,3.05,5.56,4.56q7.48,6.09,15,12.17a4.38,4.38,0,0,0,5.35.34,4.18,4.18,0,0,0,1.78-4.91,6.75,6.75,0,0,0-2-2.72c-4.44-3.72-9-7.35-13.44-11-2.17-1.77-4.34-3.54-6.52-5.29a4.35,4.35,0,0,0-4.94-.56A4.11,4.11,0,0,0,164.58,205.12Zm151,10.38c-.65.3-1.92.82-3.14,1.46q-10.71,5.64-21.4,11.3a4.53,4.53,0,0,0-2.6,3.24,4.44,4.44,0,0,0,6.45,4.8c4-2.08,8-4.2,12-6.31s7.78-4.09,11.64-6.19a4.35,4.35,0,0,0,2.13-5c-.52-2-2.26-3.31-5.05-3.3Zm-63.83-14c0,2.75,1.47,4.56,3.62,4.92a4.35,4.35,0,0,0,5.08-3.17q3.92-12.58,7.77-25.19a5,5,0,0,0,.21-1.89,4.43,4.43,0,0,0-8.66-.87q-3.6,11.56-7.14,23.13c-.33,1.15-.63,2.35-.85,3ZM190.4,183.61a20.52,20.52,0,0,0,1,2.75c1.84,3.45,3.75,6.87,5.64,10.29,2.34,4.23,4.63,8.49,7,12.67a4.43,4.43,0,0,0,7.59-4.58c-3-5.44-6-10.85-8.95-16.28-1.27-2.31-2.51-4.63-3.82-6.92a4.41,4.41,0,0,0-5.13-2.16A4.87,4.87,0,0,0,190.4,183.61Zm86.66,34a4.69,4.69,0,0,0,3.95-2.12q4.56-5.64,9.15-11.24c2.34-2.88,4.69-5.76,7-8.65a4.47,4.47,0,1,0-6.55-6.08,4,4,0,0,0-.37.45l-3.49,4.26q-6.54,8-13.08,16.08a4.27,4.27,0,0,0-.56,4.83,4.21,4.21,0,0,0,3.95,2.51Zm22.77,41.85h.61q13-1.31,26-2.65a5,5,0,0,0,1.82-.54,4.38,4.38,0,0,0,2.15-5.3,4.44,4.44,0,0,0-4.89-3q-9.24.92-18.49,1.89c-2.7.28-5.41.49-8.1.89a4.3,4.3,0,0,0-3.65,4.73,4.44,4.44,0,0,0,4.55,4ZM236,199.22a4.91,4.91,0,0,0-.08-1.08l-2-19.07c-.21-2.11-.4-4.22-.65-6.32a4.35,4.35,0,0,0-3.22-3.9,4.47,4.47,0,0,0-4.8,1.64c-1.06,1.38-.84,2.95-.69,4.5q1.26,12.4,2.55,24.8a4.45,4.45,0,0,0,4.66,4.23h.08a4.4,4.4,0,0,0,4.16-4.63A1,1,0,0,0,236,199.22Z"/><path class="cls-3" d="M236.65,424.75c-4.74-.21-9.51-.19-14.22-.7-6.24-.67-12.45-1.63-18.63-2.72a150.23,150.23,0,0,1-32-9.72,155.91,155.91,0,0,1-34.26-19.51c-5.26-4-10.29-8.33-15.27-12.67a150.76,150.76,0,0,1-16.82-18,1.15,1.15,0,0,1-.13-1.62l.13-.13c2.8-3.37,5.46-6.87,8.36-10.16a112.87,112.87,0,0,1,23.63-20.12,110.58,110.58,0,0,1,40-16.13,136.47,136.47,0,0,1,14.67-1.87,107,107,0,0,1,13.4-.21,111.72,111.72,0,0,1,25.28,4.21,114.52,114.52,0,0,1,20.9,8.24,106.86,106.86,0,0,1,21.66,14.44c3.79,3.3,7.53,6.69,11,10.34a116.41,116.41,0,0,1,16.39,22.2,125.49,125.49,0,0,1,13.09,32.8c.54,2.19.52,2.18-1.58,3.25a161.41,161.41,0,0,1-37.37,13.58c-5.34,1.22-10.78,2-16.19,2.9A153.32,153.32,0,0,1,236.65,424.75Z"/><path class="cls-4" d="M310.3,373.21c-.8-2.07-1.49-4.19-2.41-6.2-2.62-5.73-5.2-11.49-8-17.11a138.16,138.16,0,0,0-14.37-22,157.51,157.51,0,0,0-18.16-19.52,150,150,0,0,0-42-27.07,133.37,133.37,0,0,0-23.83-7.88c-5.63-1.24-11.32-2.25-17-3-5-.62-10-.86-15-1a140.34,140.34,0,0,0-14.21.28,145.68,145.68,0,0,0-37.65,8,138.93,138.93,0,0,0-28.93,14c-4.52,2.92-8.85,6.13-13.27,9.21-.21.12-.42.23-.64.33-.57-2.3-1.22-4.49-1.67-6.73-1-5-2-9.9-2.75-14.89A107.84,107.84,0,0,1,69.2,268c-.24-6.14-.2-12.29-.25-18.45,0-2,0-2,1.93-2.75a169.59,169.59,0,0,1,27.9-8.9,185.79,185.79,0,0,1,20.7-3.45,167.86,167.86,0,0,1,26.43-.8c6.39.27,12.77,1.06,19.12,1.93a159,159,0,0,1,30.26,7.4,176.17,176.17,0,0,1,20,8.29,153.91,153.91,0,0,1,22.32,13q8.16,5.84,15.87,12.31a152,152,0,0,1,11.68,11,170.61,170.61,0,0,1,17.27,20.94A173.33,173.33,0,0,1,296,331.25a169.49,169.49,0,0,1,11.92,31c.87,3.2,1.64,6.42,2.45,9.63.11.41.17.84.25,1.26Z"/><path class="cls-4" d="M101.63,356.36c-.84-1.15-1.73-2.3-2.56-3.49a170.35,170.35,0,0,1-14.2-24.42,178.49,178.49,0,0,1-8.32-21.15c-.26-.82.14-1.12.6-1.47,2.35-1.79,4.69-3.59,7.09-5.31a139.2,139.2,0,0,1,21-12.37,135,135,0,0,1,30.38-10.51c5.21-1.09,10.47-2,15.75-2.69a125.91,125.91,0,0,1,22.72-.68,141.32,141.32,0,0,1,34.61,6.11,144.7,144.7,0,0,1,35.41,16.42A125.79,125.79,0,0,1,261.72,310c4,3.67,8,7.37,11.72,11.31a132.87,132.87,0,0,1,16.63,21.59c2.45,4,4.67,8.08,7,12.14a11.14,11.14,0,0,1,.51,1.36c-25-32.26-57.31-50.15-98.08-50.13S126.51,324.28,101.63,356.36Z"/><path class="cls-5" d="M277.88,293.9c1.87-1.54,3.73-3.23,5.74-4.71,4.5-3.3,9-6.59,13.64-9.69a150.85,150.85,0,0,1,20.27-11.28,172.54,172.54,0,0,1,28.1-10.38,154.88,154.88,0,0,1,18.95-4.12c3.57-.49,7.13-1,10.71-1.37,3.33-.34,6.67-.58,10-.71,4.42-.17,8.84-.23,13.27-.27,1.66,0,3.33.14,5,.25a1,1,0,0,1,1,1,.86.86,0,0,1,0,.16c-.05,3.28.1,6.56-.06,9.83-.18,3.79-.6,7.57-1,11.35-.26,2.71-.5,5.44-.94,8.12-.61,3.79-1.24,7.58-2.16,11.29-1.35,5.4-3,10.73-4.45,16.1-.26,1-.56,1-1.48.7A144.32,144.32,0,0,0,372.7,304c-3.85-.73-7.7-1.46-11.57-2.06a74.53,74.53,0,0,0-7.45-.73c-6-.29-11.93-.66-17.89-.66-4.19,0-8.38.56-12.58.88a135.83,135.83,0,0,0-23,4c-3.48.88-6.9,2-10.33,3a1.34,1.34,0,0,1-1.78-.59C284.77,303.2,281.38,298.64,277.88,293.9Z"/><path class="cls-6" d="M292,313.15c34.09-10.95,68-10,101.94,2.23a169,169,0,0,1-26.39,46.3c-1.87-1.43-3.62-2.81-5.41-4.13a139,139,0,0,0-15.94-10.09,116.07,116.07,0,0,0-21.06-9c-5.15-1.61-10.44-2.79-15.69-4.06-1.95-.48-4-.63-5.95-1a1.85,1.85,0,0,1-1.18-.82C298.87,326.15,295.48,319.75,292,313.15Z"/><path class="cls-7" d="M328.56,72.49l-4.79,8.2q-3.39,5.82-6.78,11.69a37.2,37.2,0,0,1-11.5-6.66L330,43.42a46.66,46.66,0,0,1,12.54,7.18,1.7,1.7,0,0,1,.41,1.33c-.39,3.41-.85,6.8-1.29,10.21l-2,15.77c-.16,1.21-.31,2.42-.49,3.81l8.67-7c4.8-3.9,9.6-7.82,14.42-11.7a1.46,1.46,0,0,1,1.21-.28A47.2,47.2,0,0,1,375.79,70L351.3,112.24a36.74,36.74,0,0,1-11.45-6.62L351.4,85.73l.43-.62-.2-.15-.43.54L336.38,98.2a1.16,1.16,0,0,1-1.56.25c-2.91-1.71-5.83-3.39-8.75-5.07a1.16,1.16,0,0,1-.56-1.4c1.06-6.32,2.07-12.65,3.08-19a2.44,2.44,0,0,0,0-.54h0C328.61,72.23,328.59,72.36,328.56,72.49Z"/><path class="cls-8" d="M305,338.73a126.1,126.1,0,0,1,59.06,27c-5.86,9.13-37.17,34.88-44.82,36.85A181.62,181.62,0,0,0,305,338.73Z"/><path class="cls-7" d="M205,77.15c-1-16.47-2-32.77-3-49.14a44.4,44.4,0,0,1,14.76-.92c.34,5.57.68,11.06,1,16.82l1-1A65.11,65.11,0,0,0,229.92,26.8a1.57,1.57,0,0,1,1.41-1.06c4.79-.24,9.57-.52,14.36-.7,1.55-.06,1.83.52,1.13,1.9a100.78,100.78,0,0,1-15.39,22.44c1.21,1.35,2.42,2.71,3.64,4.06L252,72.1c.91,1,.72,1.72-.61,1.9-3.2.42-6.41.81-9.62,1.1-2.07.19-4.16.16-6.23.28a1.93,1.93,0,0,1-1.74-.75c-4.39-5-8.83-9.9-13.27-14.86a2.47,2.47,0,0,0-1.59,2.7c.37,4.54.59,9.08.88,13.72A46.16,46.16,0,0,1,205,77.15Z"/><path class="cls-7" d="M356.9,117.44l34.62-33c2.64,2.19,5.27,4.26,7.77,6.48,3.81,3.37,7.44,6.92,10.06,11.34a15.43,15.43,0,0,1,2.48,10.11c-.67,5.07-7,11.84-12.94,11.21-1-.11-2-.34-2.76-.48.21,2,.53,4.08.61,6.15a8.58,8.58,0,0,1-1.81,5.1,13.07,13.07,0,0,1-16.47,4.71,29.42,29.42,0,0,1-8.63-5.92A90.11,90.11,0,0,1,356.9,117.44Zm16.35,3.48c1.56,1.63,3,3.27,4.55,4.7a4.23,4.23,0,0,0,5.76.41c2.45-1.83,2.92-4.39,1-6.87-1.3-1.7-2.85-3.21-4.37-4.88Zm14.55-13.86c1.43,1.41,2.68,2.83,4.12,4,1.85,1.53,3.68,1.36,5.48-.25a3.76,3.76,0,0,0,.78-5.25l-.08-.1a52.68,52.68,0,0,0-3.92-4.52Z"/><path class="cls-7" d="M266.76,26.65a44.85,44.85,0,0,1,14.31,3.24c-1.25,5.55-2.51,11-3.73,16.55-.95,4.27-2,8.52-2.75,12.83-.87,5.17,2.37,7.69,6.27,8.38,4.24.74,7.28-1.28,8.33-5.61,1.53-6.3,2.9-12.64,4.33-19,.74-3.26,1.47-6.51,2.22-9.85a41.91,41.91,0,0,1,14.09,3.13Q308.4,42.73,307,49c-1.28,5.63-2.37,11.3-3.89,16.86-2,7.23-6.29,12.55-13.72,14.82-8.89,2.72-20.83-.89-26.14-7.86a17,17,0,0,1-3.56-12.69c.64-5.11,1.85-10.16,2.92-15.22,1.24-5.83,2.59-11.65,3.9-17.47A7.24,7.24,0,0,1,266.76,26.65Z"/><path class="cls-5" d="M429.13,161.13a30.08,30.08,0,0,1-10.92,6.45l-8.67-14.72-4.94,2.9c3.38,5.74,6.71,11.43,10.09,17.17a30.66,30.66,0,0,1-11,6.52c-.2-.33-.42-.65-.61-1L387,151.18c-.75-1.28-.73-1.38.52-2.11l39.76-23.37c1.3-.77,1.32-.76,2.09.55,5.41,9.2,10.82,18.39,16.29,27.67a28.89,28.89,0,0,1-10.56,6.31c-.24.08-.8-.34-1-.66-2.89-4.86-5.75-9.74-8.62-14.61l-.66-1.09-4.34,2.55Z"/><path class="cls-9" d="M115.24,60.25l6.28-3.18,9.56,18.75,22.5-11.46-4.85-9.54c-1.37-2.7-2.73-5.4-4.13-8.08-.33-.63-.35-1,.3-1.46a13.79,13.79,0,0,1,5.55-2.58c.18.33.39.66.57,1q10.6,20.85,21.25,41.69c.43.83.38,1.3-.41,1.71l-4.23,2.17c-.92.47-1.33.09-1.77-.79-2.84-5.7-5.75-11.36-8.64-17-.19-.38-.41-.75-.66-1.19L134.08,81.72c3.3,6.47,6.55,12.88,9.83,19.32a14,14,0,0,1-5.61,3.09c-.84.26-.94-.36-1.17-.83q-6.37-12.49-12.73-25-4.26-8.35-8.51-16.7C115.73,61.28,115.58,61,115.24,60.25Z"/><path class="cls-9" d="M31.54,152l3.77-6,11.18,7,14.19,8.88a16,16,0,0,0,7.78,2.75,10.6,10.6,0,0,0,8.93-3.76c3.21-3.71,5-7.86,3.34-12.86a13.81,13.81,0,0,0-6.08-7.15L50.13,125.48c-.36-.23-.72-.48-1.13-.76A12.25,12.25,0,0,1,52.64,119l8.28,5.18q8.72,5.46,17.42,10.93A23.16,23.16,0,0,1,85,141.19a16.43,16.43,0,0,1,2.46,15.11c-2.18,6.81-6.2,12.13-13.21,14.58-5.6,2-10.92.73-15.82-2.16C52.19,165.05,46.1,161.1,40,157.26Z"/><path class="cls-9" d="M76,101.62C76,88.4,86.82,79,96.45,77.29c1.22-.22,1.88.13,2.11,1.34.11.58.33,1.15.4,1.74.29,2.2-.1,2.61-2.21,3.22-7.43,2.15-12.48,6.72-14.16,14.48a15.66,15.66,0,0,0,1.52,10.45c3.33,6.65,8.32,11.38,15.77,13a15.58,15.58,0,0,0,14.08-4c3.34-3,6-6.4,6.64-11a1,1,0,0,1,.66-.64,5.34,5.34,0,0,1,4.59,1.14,1.94,1.94,0,0,1,.38,1.54,22,22,0,0,1-6,11.34,24.9,24.9,0,0,1-13.8,8A22.52,22.52,0,0,1,90,124.75c-7-4.3-11.71-10.36-13.44-18.51C76.26,104.73,76.19,103.16,76,101.62Z"/><path class="cls-9" d="M186.63,82.58Q184.05,73,181.5,63.44c-2.44-9.1-4.86-18.2-7.33-27.28-.23-.85-.14-1.39.72-1.65,1.59-.47,3.18-.94,4.79-1.35.87-.22,1.34.15,1.58,1.08,2.05,7.8,4.15,15.59,6.23,23.38,2,7.34,3.9,14.67,5.9,22,.23.85.12,1.26-.71,1.64A14.22,14.22,0,0,1,186.63,82.58Z"/></g></g></g></g></svg>